<svg width='200' height='200' fill="#FFFFFF" xmlns="http://www.w3.org/2000/svg" xmlns:xlink="http://www.w3.org/1999/xlink" version="1.1" x="0px" y="0px" viewBox="0 0 300 300" enable-background="new 0 0 300 300" xml:space="preserve"><path d="M251.7,90.1c-23.4-26.2-62.2-33.6-83.9-35.7c3.6-5.9,8.1-11.5,13.4-16.8c2-2,2-5.1,0-7.1c-2-2-5.1-2-7.1,0  c-7.7,7.7-13.3,15.5-17.4,23.2c-1.9-0.1-3.5-0.1-4.6-0.1c-1-2.4-2.1-4.9-3.6-7.5C141.6,33.8,127.4,19,99.3,19  c-7.2,0-15.1,1-23.4,2.9c-1.3,0.3-2.4,1.1-3.1,2.2s-0.9,2.4-0.6,3.7c3.6,15.4,9.4,27.6,17.2,36.6C59.3,75.9,27.7,100.2,30.9,152  c4.3,70.9,41.3,106.7,63,121.8c5,3.5,10.8,5.3,16.8,5.3c3.6,0,7.3-0.7,10.8-2c5.9-2.3,15.8-4.9,29.3-4.4l0.2,0l0.2,0  c1.1,0,2.3-0.1,3.6-0.1c11.9,0,20.5,2.4,25.7,4.4c9.2,3.6,19.5,2.4,27.6-3.2c21.7-15.1,58.7-50.9,63-121.8  C272.6,127,266.1,106.2,251.7,90.1z M99.3,28.8c30.8,0,41.7,20.7,45.4,33.9l-39.1-25.5c-2.3-1.5-5.4-0.9-6.9,1.5  c-1.5,2.3-0.9,5.4,1.5,6.9l39.2,25.6c-3,0.5-6.5,0.8-10.2,0.8c0,0,0,0,0,0c-22.5,0-38.3-14.2-46-41.6C88.9,29.4,94.3,28.8,99.3,28.8  z M261.1,151.3c-4.1,66.7-38.6,100.2-58.8,114.2c-5.3,3.7-12.1,4.5-18.2,2.1c-6-2.3-16-5.1-29.4-5.1c-1.3,0-2.5,0-3.7,0.1  c-15.2-0.6-26.4,2.4-33.1,5.1c-6.1,2.4-13,1.6-18.3-2.1c-20.2-14-54.7-47.5-58.8-114.2c-2.4-39.1,16.7-65.7,56.8-79.2  c8.9,6.7,19.6,9.9,31.6,9.9c0,0,0,0,0,0c7.4,0,13.9-1.3,18.4-2.4c-1.8,9.9-1.5,18.2-0.9,23.7c-7-1.1-14-4.1-20.2-8.8  c-2.2-1.7-5.3-1.3-7,0.9c-1.7,2.2-1.3,5.3,0.9,7c9.2,7,19.9,10.9,30.6,11.2c0.5,0.2,1.1,0.3,1.7,0.3c0.4,0,0.8-0.1,1.3-0.2  c0.2,0,0.3-0.1,0.5-0.2c11.7-0.5,21.7-5.5,28.2-13.9c1.7-2.2,1.3-5.3-0.9-7c-2.2-1.7-5.3-1.3-7,0.9c-4.1,5.4-10.4,8.8-17.8,9.8  c-0.5-4-0.9-10.5,0.2-18.5c1-7.3,2.9-14.2,5.9-20.9c19.2,1.4,58.8,7.3,81.5,32.7C256.8,110.8,262.5,129.2,261.1,151.3z M96.1,230.6  c1.8,2.1,1.6,5.2-0.5,7.1c-0.9,0.8-2.1,1.2-3.3,1.2c-1.4,0-2.8-0.6-3.8-1.7c-45.4-51.9-33.5-107.8-23.7-117.6c2-2,5.1-1.9,7.1,0  c2,2,1.9,5.1,0,7.1c-1.7,1.7-7.3,14.2-6,35C67,178.6,73.1,204.3,96.1,230.6z"/></svg>