<svg width='200' height='200' fill="#FFFFFF" xmlns="http://www.w3.org/2000/svg" xmlns:xlink="http://www.w3.org/1999/xlink" version="1.0" x="0px" y="0px" viewBox="0 0 100 100" enable-background="new 0 0 100 100" xml:space="preserve"><g><path d="M75.51,59.285l-5.443,34.267c0,2.59-2.374,4.687-5.303,4.687H35.237c-2.929,0-5.303-2.097-5.303-4.687l-5.448-34.267   c1.188,0.465,2.472,0.891,3.843,1.277c0.457,2.92,0.914,5.689,1.363,8.419c1.304,7.889,2.535,15.339,3.69,25.531   c0.023,0.195,0.191,0.344,0.386,0.344c0.004,0,0.008,0,0.008,0c0.218,0,0.391-0.176,0.391-0.391c0-0.031-0.004-0.066-0.012-0.094   c-0.406-8.731-0.953-15.604-1.484-22.251c-0.285-3.554-0.558-7.018-0.812-10.681c1.042,0.223,2.12,0.43,3.229,0.613   c0.207,1.727,0.414,3.405,0.613,5.072c1.008,8.311,1.961,16.163,2.941,26.977c0.016,0.203,0.187,0.355,0.387,0.355   c0.004,0,0.004,0,0.004,0c0.214-0.012,0.394-0.176,0.394-0.391c0-0.031-0.004-0.059-0.007-0.09   c-0.168-7.067-0.344-12.836-0.512-18.412c-0.136-4.452-0.261-8.618-0.371-13.02c1.047,0.129,2.113,0.238,3.199,0.328   c0.082,0.882,0.164,1.753,0.242,2.62c0.796,8.712,1.546,16.94,2.319,28.331c0.016,0.208,0.184,0.363,0.391,0.363c0,0,0,0,0.004,0   c0.199,0.008,0.395-0.171,0.395-0.391c0-0.022-0.004-0.051-0.008-0.078c-0.012-12.199,0.027-20.657,0.121-30.615   c1.039,0.051,2.085,0.082,3.144,0.102c0.047,0.683,0.094,1.362,0.141,2.038c0.593,8.747,1.152,17.007,1.664,28.437   c0.012,0.211,0.184,0.375,0.391,0.375c0.003,0,0.003,0,0.007,0c0.207-0.004,0.379-0.172,0.383-0.383   c0.27-12.297,0.594-20.884,0.961-30.471c1.059-0.021,2.109-0.059,3.147-0.109c0.371,9.63,0.694,18.232,0.968,30.58   c0.004,0.211,0.176,0.379,0.387,0.383c0,0,0,0,0.004,0c0.207,0,0.379-0.164,0.391-0.375c0.559-12.457,1.082-21.063,1.684-30.826   c1.09-0.09,2.16-0.203,3.206-0.336c0.027,6.67,0.016,12.742,0.004,19.635c-0.008,3.565-0.016,7.381-0.02,11.645   c0,0.211,0.168,0.387,0.379,0.391h0.012c0.206,0,0.379-0.155,0.391-0.363c0.772-11.395,1.522-19.623,2.319-28.335   c0.105-1.145,0.211-2.296,0.316-3.468c1.105-0.184,2.179-0.391,3.217-0.617c-0.145,3.675-0.314,7.158-0.495,10.728   c-0.327,6.557-0.667,13.332-0.87,21.923c-0.004,0.211,0.156,0.391,0.367,0.402h0.022c0.2,0,0.371-0.152,0.387-0.355   c0.938-10.336,1.952-17.889,3.03-25.887c0.336-2.499,0.676-5.029,1.02-7.678C73.09,60.16,74.348,59.738,75.51,59.285z"/><path d="M75.51,33.593c0,6.076-4.928,11.06-11.008,11.06c-1.897,0-3.686-0.481-5.244-1.328c-1.961,3.042-5.373,5.053-9.259,5.053   c-3.882,0-7.294-2.011-9.255-5.053c-1.558,0.847-3.347,1.328-5.244,1.328c-6.081,0-11.009-4.983-11.009-11.06   c0-5.565,4.132-10.22,9.494-10.954c0.496-0.07,1-0.105,1.515-0.105c0.515,0,1.019,0.035,1.515,0.105   c1.335,0.183,2.593,0.605,3.729,1.222c0.277-0.43,0.582-0.84,0.914-1.222c0.507-0.59,1.078-1.129,1.699-1.598   c0.792,0.656,1.683,1.199,2.647,1.598c1.23,0.515,2.582,0.796,3.995,0.796s2.765-0.281,3.995-0.796   c0.965-0.398,1.854-0.941,2.651-1.598c0.621,0.469,1.191,1.008,1.699,1.598c0.332,0.382,0.637,0.792,0.914,1.222   c1.137-0.617,2.394-1.039,3.729-1.222c0.496-0.07,1-0.105,1.516-0.105s1.02,0.035,1.516,0.105   C71.383,23.377,75.51,28.032,75.51,33.593z"/><path d="M86.516,45.719c0,5.994-4.797,10.868-10.76,11.001c-5.986,2.526-15.291,4.154-25.757,4.154   c-10.462,0-19.768-1.628-25.754-4.154c-5.963-0.133-10.758-5.007-10.758-11.001c0-4.534,2.737-8.427,6.654-10.114   c0.914,0.34,1.875,0.574,2.874,0.691c0.734,6.237,6.053,11.091,12.485,11.091c1.628,0,3.241-0.316,4.741-0.926   c2.374,2.937,5.932,4.651,9.759,4.651c3.831,0,7.388-1.714,9.763-4.651c1.499,0.609,3.111,0.926,4.74,0.926   c6.432,0,11.75-4.854,12.484-11.091c1-0.117,1.961-0.351,2.875-0.691C83.773,37.292,86.516,41.185,86.516,45.719z"/><path d="M58.865,12.229c0,4.896-3.969,8.865-8.865,8.865c-4.896,0-8.865-3.969-8.865-8.865S45.104,3.364,50,3.364   c0.816,0,1.596,0.156,2.357,0.317c1.083,0.23,0.261,3.025,0.913,3.392c0.655,0.369,3.104-1.124,3.685-0.342   C58.103,8.279,58.865,10.152,58.865,12.229z"/><path d="M55.513,5.185c-0.229,0-0.46-0.079-0.648-0.239c-0.421-0.358-0.471-0.989-0.112-1.41c2.279-2.677,5.539-3.078,7.765-2.284   c0.52,0.185,0.791,0.757,0.606,1.277c-0.186,0.521-0.754,0.792-1.278,0.606c-1.522-0.542-3.917-0.243-5.571,1.697   C56.076,5.065,55.795,5.185,55.513,5.185z"/></g></svg>