<svg fill="#FFFFFF" xmlns="http://www.w3.org/2000/svg" xmlns:xlink="http://www.w3.org/1999/xlink" version="1.1" x="0px" y="0px" viewBox="0 0 100 100" enable-background="new 0 0 100 100" xml:space="preserve"><path fill="#FFFFFF" d="M76.83,41.112c-0.345-3.103-1.322-7.5-2.357-12.155c-1.063-4.788-2.164-9.738-2.475-13.004  c-0.185-1.937,0-7.877,0.002-7.937L72.016,7.5H22.98L23,8.02c0.003,0.067,0.263,6.751,0.004,8.921  c-0.304,2.542-1.214,6.353-2.095,10.038C19.948,31,18.954,35.159,18.67,37.95c-1.251,12.245-0.015,49.361-0.003,49.734l0.016,0.462  l50.794,2.354l0.128,0.007l7.218-3.521l0.011-0.3C76.846,86.343,78.075,52.323,76.83,41.112 M70.985,8.5  c-0.037,1.368-0.124,5.065-0.021,6.998L24.1,15.295c0.06-2.303-0.038-5.537-0.081-6.796H70.985z M19.664,38.051  c0.279-2.724,1.264-6.85,2.218-10.839c0.928-3.884,1.805-7.553,2.114-10.153c0.026-0.216,0.047-0.477,0.064-0.763l46.886,0.202  c-0.358,3.434-2.298,22.142-2.611,27.808c-0.583,10.517,0.485,40.782,0.646,45.169l-49.328-2.286  C19.514,82.864,18.496,49.489,19.664,38.051 M75.844,86.35l-5.872,2.864c-0.185-5.085-1.211-34.539-0.64-44.853  c0.254-4.568,1.569-17.676,2.253-24.33c0.5,2.782,1.212,5.993,1.912,9.143c0.983,4.424,2,8.999,2.339,12.049  C77.012,51.801,75.963,82.95,75.844,86.35"/><rect x="61.624" y="55.538" transform="matrix(-0.1105 0.9939 -0.9939 -0.1105 127.7393 3.5562)" fill="#FFFFFF" width="1.308" height="6.803"/><rect x="59.867" y="61.087" transform="matrix(-0.3113 0.9503 -0.9503 -0.3113 140.1216 26.3271)" fill="#FFFFFF" width="1.308" height="5.701"/><rect x="20.796" y="56.417" transform="matrix(-0.994 0.1098 -0.1098 -0.994 54.515 111.1399)" fill="#FFFFFF" width="6.802" height="1.308"/><rect x="23.104" y="61.416" transform="matrix(-0.9503 0.3114 -0.3114 -0.9503 69.9467 112.9706)" fill="#FFFFFF" width="5.701" height="1.307"/><path fill="#FFFFFF" d="M29.038,53.062c0,6.99,6.441,12.657,14.387,12.657c7.945,0,14.387-5.667,14.387-12.657  c0-1.134-0.026-17.77-0.026-17.77l-5.571,7.753c-2.432-1.654-5.479-2.64-8.789-2.64c-1.653,0-3.239,0.249-4.717,0.7  c-1.538-4.013-4.916-8.854-4.916-8.854S29.038,51.345,29.038,53.062 M37.362,50.562c0,0-1.66,0.852-1.66,2.818l-1.661-2.818  c0.227-0.186,1.814-1.387,1.661-2.818L37.362,50.562z M48.407,55.996l-1.66-2.817c0.226-0.187,1.813-1.388,1.66-2.818l1.661,2.818  C50.067,53.179,48.407,54.03,48.407,55.996 M33.929,58.038l1.148-0.627c0.269,0.493,1.262,1.928,2.26,2.048  c1.237,0.146,2.237-1.211,2.602-1.785c-1.337-0.221-1.758-1.104-1.501-1.569c0.829-1.509,2.275-0.334,2.46-0.175  c0.127-0.081,1.873-1.007,2.577,0.359c0.254,0.492-0.175,1.662-2.073,1.536c0.286,0.703,1.143,2.422,2.703,2.422  c1.7,0,2.268-0.724,2.292-0.755l0.531,0.381l0.54,0.369c-0.091,0.135-0.964,1.313-3.363,1.313c-0.032,0-0.062-0.004-0.093-0.005  c-0.412,1.105-1.428,2.558-3.294,2.558h-0.003c-2.789-0.002-3.751-2.952-3.886-3.42C35.181,60.252,34.059,58.276,33.929,58.038"/><path fill="#FFFFFF" d="M40.546,59.066c0.419,0.769,1.121,1.719,2.172,2.191c-0.262,0.621-0.846,1.543-2,1.543h-0.002  c-1.489-0.001-2.226-1.399-2.503-2.105C39.226,60.453,40.023,59.708,40.546,59.066"/><polygon fill="#FFFFFF" points="33.125,73.995 33.871,77.742 37.327,78.009 34.333,80.059 35.079,83.806 32.482,81.325   29.487,83.377 30.877,79.794 28.28,77.313 31.735,77.578 "/><polygon fill="#FFFFFF" points="42.563,74.721 43.309,78.468 46.765,78.734 43.771,80.784 44.517,84.531 41.92,82.051   38.925,84.102 40.315,80.519 37.718,78.039 41.173,78.304 "/><polygon fill="#FFFFFF" points="52.001,75.446 52.747,79.193 56.203,79.459 53.209,81.51 53.955,85.256 51.357,82.776   48.363,84.827 49.753,81.244 47.156,78.765 50.61,79.029 "/></svg>