<svg width='200' height='200' fill="#FFFFFF" xmlns="http://www.w3.org/2000/svg" xmlns:xlink="http://www.w3.org/1999/xlink" version="1.1" x="0px" y="0px" viewBox="0 0 300 300" enable-background="new 0 0 300 300" xml:space="preserve"><g><path d="M179.791,245.635c-9.424,10.211-11.915,4.984-20.77,10.914c-7.431,4.978-6.723,11.805-13.249,15.721   c-15.666,9.4-56.107,1.427-78.488-9.316c-22.381-10.743-32.077-33.655-37.449-52.456c-5.372-18.8-3.789-34.259,4.924-42.973   c18.352-18.353,34.915-20.591,34.915-20.591l-3.134-8.057L34.312,95.008l12.534-8.953l6.267,15.219l15.667-0.895   c0,0,18.354-34.468,31.781-41.629c13.429-7.162,58.193-9.4,58.193-9.4s-8.058,25.067-28.649,36.705   c-20.59,11.637-25.963,14.324-25.963,14.324l-35.052,3.781l-13.292,1.59c0,0,1.791,4.476,6.268,13.354   c4.476,8.878,14.324,23.351,14.324,23.351s5.372-9.847,15.22-16.115c9.848-6.267,18.021-11.037,33.123-8.952l8.058,1.343   l6.714-18.8c4.557-3.947,4.699-8.729,21.005-16.295c6.209-2.881,12.622-2.773,19.674-2.491c11.664,0.468,21.257,6.28,21.257,6.28   s1.158-7.254,0.892-19.29c-0.205-9.131,0-5.054,0-5.054l-2.266-25.548l14.875,8.121l-6.79,33.726l1.343,8.538   c0,0,15.443-6.391,40.534,0.248c11.913,3.152,21.052,15.72,25.862,34.671c4.808,18.952,7.945,43.633-6.001,64.172   c-13.946,20.54-44.896,47.762-63.163,47.512c-7.611-0.104-10.431-6.362-19.356-6.929L179.791,245.635z M77.732,152.752   c0,0-24.619,4.924-33.124,15.667c-8.505,10.743-15.667,23.725-8.057,43.868c7.609,20.143,21.485,47.896,56.848,54.61   c35.363,6.713,40.288,4.477,44.763,2.238c4.476-2.238,9.849-12.533,17.011-17.458c4.205-2.892,9.045-1.675,15.219-6.715   c7.078-5.776,11.044-15.94,13.876-24.618c5.698-17.461,2.626-41.63-2.685-55.954c-3.058-8.246-14.908-28.476-43.867-38.049   C95.905,112.522,77.732,152.752,77.732,152.752z M115.333,199.753c2.686,2.686-0.373,7.609-1.267,8.952   c-0.896,1.344-5.302,0.299-8.581-3.133c-1.383-1.446-2.686-12.534-2.686-12.534S112.647,197.067,115.333,199.753z M122.009,203.156   c0,0,3.151-10.711,2.446-12.584c-1.67-4.443-5.312-7.134-6.663-6.248c-1.35,0.884-6.095,4.214-4.678,7.736   C114.53,195.585,122.009,203.156,122.009,203.156z"/></g></svg>