<svg width='200' height='200' fill="#FFFFFF" xmlns="http://www.w3.org/2000/svg" xmlns:xlink="http://www.w3.org/1999/xlink" version="1.1" x="0px" y="0px" viewBox="0 0 52 52" enable-background="new 0 0 52 52" xml:space="preserve"><g><g><g><g><g><path d="M38,28.4834175c-2.7568359,0-5-2.2431641-5-5s2.2431641-5,5-5s5,2.2431641,5,5S40.7568359,28.4834175,38,28.4834175z        M38,20.4834175c-1.6542969,0-3,1.3457031-3,3s1.3457031,3,3,3s3-1.3457031,3-3S39.6542969,20.4834175,38,20.4834175z"/></g></g><g><g><path d="M30,28.4834175c-2.7568359,0-5-2.2431641-5-5s2.2431641-5,5-5s5,2.2431641,5,5S32.7568359,28.4834175,30,28.4834175z        M30,20.4834175c-1.6542969,0-3,1.3457031-3,3s1.3457031,3,3,3s3-1.3457031,3-3S31.6542969,20.4834175,30,20.4834175z"/></g></g><g><g><path d="M22,28.4834175c-2.7568359,0-5-2.2431641-5-5s2.2431641-5,5-5s5,2.2431641,5,5S24.7568359,28.4834175,22,28.4834175z        M22,20.4834175c-1.6542969,0-3,1.3457031-3,3s1.3457031,3,3,3s3-1.3457031,3-3S23.6542969,20.4834175,22,20.4834175z"/></g></g><g><g><path d="M14,28.4834175c-2.7568359,0-5-2.2431641-5-5s2.2431641-5,5-5s5,2.2431641,5,5S16.7568359,28.4834175,14,28.4834175z        M14,20.4834175c-1.6542969,0-3,1.3457031-3,3s1.3457031,3,3,3s3-1.3457031,3-3S15.6542969,20.4834175,14,20.4834175z"/></g></g></g><g><g><path d="M34,36.0000191c-2.7568359,0-5-2.2431641-5-5s2.2431641-5,5-5s5,2.2431641,5,5S36.7568359,36.0000191,34,36.0000191z       M34,28.0000191c-1.6542969,0-3,1.3457031-3,3s1.3457031,3,3,3s3-1.3457031,3-3S35.6542969,28.0000191,34,28.0000191z"/></g></g><g><g><path d="M26,36.0000191c-2.7568359,0-5-2.2431641-5-5s2.2431641-5,5-5s5,2.2431641,5,5S28.7568359,36.0000191,26,36.0000191z       M26,28.0000191c-1.6542969,0-3,1.3457031-3,3s1.3457031,3,3,3s3-1.3457031,3-3S27.6542969,28.0000191,26,28.0000191z"/></g></g><g><g><path d="M18,36.0000191c-2.7568359,0-5-2.2431641-5-5s2.2431641-5,5-5s5,2.2431641,5,5S20.7568359,36.0000191,18,36.0000191z       M18,28.0000191c-1.6542969,0-3,1.3457031-3,3s1.3457031,3,3,3s3-1.3457031,3-3S19.6542969,28.0000191,18,28.0000191z"/></g></g><g><g><path d="M30,43.0000191c-2.7568359,0-5-2.2431641-5-5s2.2431641-5,5-5s5,2.2431641,5,5S32.7568359,43.0000191,30,43.0000191z       M30,35.0000191c-1.6542969,0-3,1.3457031-3,3s1.3457031,3,3,3s3-1.3457031,3-3S31.6542969,35.0000191,30,35.0000191z"/></g></g><g><g><path d="M26,50.0000191c-2.7568359,0-5-2.2431641-5-5s2.2431641-5,5-5s5,2.2431641,5,5S28.7568359,50.0000191,26,50.0000191z       M26,42.0000191c-1.6542969,0-3,1.3457031-3,3s1.3457031,3,3,3s3-1.3457031,3-3S27.6542969,42.0000191,26,42.0000191z"/></g></g><g><g><path d="M22,43.0000191c-2.7568359,0-5-2.2431641-5-5s2.2431641-5,5-5s5,2.2431641,5,5S24.7568359,43.0000191,22,43.0000191z       M22,35.0000191c-1.6542969,0-3,1.3457031-3,3s1.3457031,3,3,3s3-1.3457031,3-3S23.6542969,35.0000191,22,35.0000191z"/></g></g></g><g><g><g><path d="M25.9550781,22.0000191c-0.0332031,0-0.0673828-0.0019531-0.1015625-0.0058594      c-0.5498047-0.0556641-0.9492188-0.5458984-0.8945313-1.0947266c0.0126953-0.1230469,1.1630859-12.3740244-5.5771484-17.0791016      c-0.453125-0.3164063-0.5634766-0.9394531-0.2480469-1.3925781s0.9404297-0.5634767,1.3925781-0.2480469      c7.7080078,5.3808594,6.4785156,18.3710938,6.4228516,18.921875      C26.8964844,21.61623,26.4619141,22.0000191,25.9550781,22.0000191z"/></g></g><g><g><path d="M26.0458984,18.4218941c-0.5527344,0-1-0.4472656-1-1c0-6.0654306,4.9345703-11.000001,11-11.000001      c0.5527344,0,1,0.4472656,1,1C37.0458984,13.4873228,32.1113281,18.4218941,26.0458984,18.4218941z M34.9833984,8.4843931      c-4.1152344,0.4853516-7.3896484,3.7597656-7.875,7.875001C31.2236328,15.8740416,34.4980469,12.5996275,34.9833984,8.4843931z"/></g></g></g></g></svg>