<svg width='200' height='200' fill="#FFFFFF" xmlns="http://www.w3.org/2000/svg" xmlns:xlink="http://www.w3.org/1999/xlink" version="1.1" x="0px" y="0px" viewBox="0 0 52 52" enable-background="new 0 0 52 52" xml:space="preserve"><g><g><path d="M34.3414612,31.6074791c-3.0475254-0.0326576-6.0950508-0.0653133-9.1425743-0.097971    c-2.6558075-0.0284576-7.8647137,0.993803-9.2706537-1.9235706c-0.9321213-1.9341831-0.0213137-6.861124,0.0310135-9.0797577    c0.070962-3.0087261-0.0500526-6.3448019,0.7754526-9.2705526c2.3984795-8.50068,14.3792801-8.7068291,17.9917068-1.1714773    c1.5318947,3.1954603,1.1171341,7.6123943,1.1386452,11.1367073c0.0109024,1.7866344,0.8281746,9.9202957-1.1535072,10.7398224    c-1.4658279,0.6061916-0.8232994,3.0260181,0.6646004,2.410696c2.935688-1.2140541,2.8611259-3.6066341,2.939621-6.5368156    c0.1389885-5.1884861,1.0938263-12.0787983-0.4311523-17.098774C35.480217,2.80091,27.8172779-0.0310747,20.313364,3.211937    c-8.5358543,3.6889925-6.9486866,16.1986103-6.9130487,23.6500378c0.0146074,3.0540695-0.8782806,6.1656399,2.4898472,7.0272388    c2.3905535,0.6115265,5.9370623,0.0841637,8.3944654,0.1104965c3.3522778,0.035923,6.7045555,0.071846,10.0568333,0.107769    C35.9506493,34.1247215,35.9518242,31.6247349,34.3414612,31.6074791L34.3414612,31.6074791z"/></g><g><path d="M15.3623581,27.7065639c3.3810101,0.2992821,5.8680687-1.820591,7.2720013-4.8836708    c-0.7764454-0.2103004-1.5528908-0.420599-2.3293381-0.6308994c0.6104183,6.020153,10.2166672,6.1295071,11.4006882,0.2491417    c-0.803566,0-1.607132,0-2.4106979,0c0.8060131,3.1973782,3.2548161,5.0695248,6.542078,5.0477867    c1.6081009-0.0106354,1.6116867-2.5106583,0-2.5c-2.3180618,0.0230885-3.6951866-1.0477066-4.1313801-3.2123852    c-0.2911911-1.1551285-2.1635075-1.2276535-2.4106979,0c-3.2663059,3.1394711-5.429636,3.2779579-6.4899902,0.4154568    c-0.1102962-1.0877819-1.7558708-1.8820801-2.3293381-0.6308975c-0.8964729,1.9559097-2.945713,3.8373413-5.1133251,3.6454678    C13.7601461,25.0647392,13.7696991,27.5655861,15.3623581,27.7065639L15.3623581,27.7065639z"/></g><g><path d="M26.2835617,33.9497337c0.2246075,2.2611351,0.3740406,4.5249634,0.3979759,6.7977867    c0.009964,0.9461174-0.0027561,1.8922882-0.0317421,2.8379593c-0.0352001,1.1484528,0.4517441,3.0885315-0.9739647,2.9943581    c-1.3516006-0.0892754-0.9018993-1.623291-0.9549332-2.6932793c-0.0570831-1.1517067-0.0490303-2.3080864-0.0440216-3.4607201    c0.0087986-2.0247612,0.0454216-4.0498047,0.0688076-6.0744553c0.018589-1.6092148-2.4813976-1.6102753-2.5,0    c-0.0450211,3.8975067-0.4002037,7.9636536,0.150753,11.8335571c0.23736,1.6672249,0.8156033,3.573246,2.736599,3.8726921    c6.2612991,0.9760132,3.9480171-13.1130333,3.650526-16.1078987    C28.6260071,32.3636398,26.1243896,32.3473396,26.2835617,33.9497337L26.2835617,33.9497337z"/></g><g><path d="M23.4244652,35.3524246c1.6086311,0,1.6112957-2.5,0-2.5    C21.815834,32.8524246,21.8131695,35.3524246,23.4244652,35.3524246L23.4244652,35.3524246z"/></g></g></svg>