<svg width='200' height='200' fill="#FFFFFF" xmlns="http://www.w3.org/2000/svg" xmlns:xlink="http://www.w3.org/1999/xlink" version="1.1" x="0px" y="0px" viewBox="0 0 99.999 94.088" enable-background="new 0 0 99.999 94.088" xml:space="preserve"><path d="M98.341,66.867c2.683-6.386,1.653-13.184,0.115-17.044c-0.403-1.012-1.363-1.693-2.453-1.74  c-4.141-0.179-10.915,1.098-16.065,5.756c-1.739-1.018-3.756-1.611-5.912-1.611c-0.327,0-0.648,0.022-0.969,0.049  c-0.282-1.782-0.729-3.369-1.234-4.637c-0.403-1.012-1.363-1.693-2.453-1.74c-5.011-0.227-13.863,1.692-19.042,9.141  c-2.433-5.163-6.709-8.722-10.021-10.494V34.29c0-7.738-4.506-14.795-11.392-18.129V9.686h0.143c0.764,0,1.384-0.619,1.384-1.384  V1.384C30.44,0.619,29.821,0,29.057,0H11.069c-0.764,0-1.384,0.619-1.384,1.384v6.918c0,0.765,0.62,1.384,1.384,1.384h0.323v6.475  C4.506,19.494,0,26.551,0,34.29v57.031c0,1.527,1.239,2.768,2.768,2.768h17.255h17.517h54.514c1.303,0,2.429-0.908,2.705-2.182  l4.803-22.139c0.178-0.816-0.025-1.67-0.551-2.324C98.82,67.209,98.589,67.026,98.341,66.867z M70.4,58.937  c0.838-0.604,1.83-1.006,2.907-1.13c0.236-0.027,0.475-0.045,0.718-0.045c0.812,0,1.585,0.16,2.296,0.444  c0.872,0.348,1.646,0.887,2.272,1.565c0.779,0.844,1.329,1.899,1.548,3.073c0.069,0.371,0.11,0.752,0.11,1.144  c0,0.86-0.176,1.68-0.492,2.426H78.98h-2.844h-2.785h-2.473h-2.588c-0.087-0.204-0.161-0.415-0.226-0.63  c-0.172-0.569-0.267-1.171-0.267-1.796C67.799,61.909,68.828,60.068,70.4,58.937z M52.199,64.856  C54.235,53.991,63.236,51.898,67.23,51.51c0.173,0.706,0.346,1.587,0.458,2.586c-3.257,2.094-5.425,5.742-5.425,9.893  c0,0.832,0.09,1.643,0.255,2.426h-4.239l5.761-9.432c0.397-0.652,0.192-1.504-0.46-1.902c-0.652-0.4-1.504-0.193-1.902,0.459  l-6.643,10.875h-2.725l-0.239-0.17C52.129,65.775,52.172,65.312,52.199,64.856z M37.539,51.821c0.473-0.65,0.935-1.207,1.339-1.656  c0.427,0.285,0.912,0.634,1.428,1.047c3.173,2.539,7.468,7.515,6.149,15.203h-4.241l-1.908-9.743l-0.058-0.294  c-0.146-0.75-0.873-1.242-1.624-1.092c-0.559,0.11-0.971,0.542-1.085,1.064c-0.039,0.18-0.044,0.369-0.007,0.561l0.007,0.035  l1.854,9.469h-1.854h-0.826h-1.707c-0.084-0.245-0.163-0.488-0.234-0.729c-0.138-0.468-0.256-0.932-0.345-1.387  c-0.29-1.48-0.329-2.887-0.197-4.206c0.097-0.971,0.285-1.893,0.542-2.762c0.145-0.488,0.307-0.962,0.487-1.416  C35.898,54.306,36.735,52.926,37.539,51.821z M14.519,66.514c-0.565,0.148-1.078,0.466-1.453,0.93  c-0.525,0.654-0.728,1.508-0.55,2.324l4.075,18.785H5.535V34.29c0-6.09,3.851-11.597,9.58-13.706  c1.088-0.399,1.812-1.438,1.812-2.597V9.686h6.452v8.302c0,1.159,0.724,2.197,1.812,2.597c5.73,2.108,9.581,7.616,9.581,13.706  v12.125c-1.378,1.509-2.772,3.439-3.886,5.7c-1.592-0.806-3.385-1.271-5.288-1.271c-6.485,0-11.761,5.275-11.761,11.76  C13.836,63.976,14.085,65.289,14.519,66.514z M29.23,66.415h-8.546c-0.82-1.055-1.313-2.375-1.313-3.811  c0-3.434,2.793-6.227,6.227-6.227c1.274,0,2.459,0.386,3.448,1.046C28.471,60.182,28.427,63.214,29.23,66.415z M92.913,74.305  l-3.091,14.248H40.306h-2.767h-2.768H22.254l-3.569-16.455l-0.032-0.148h12.792h1.265h2.062h2.457h0.311h2.767h0.248h2.415h3.602  H50.3h7.938h1.872h1.773h3.51h1.087h3.37h8.35h4.456h1.011h3.131h4.605h2.021L92.913,74.305z M92.386,66.415h-6.854  c0.165-0.783,0.255-1.594,0.255-2.426c0-2.313-0.681-4.468-1.84-6.289c3.399-2.925,7.542-3.775,9.919-4.006  C94.525,56.397,95.202,61.625,92.386,66.415z"/></svg>