<svg width='200' height='200' fill="#FFFFFF" xmlns="http://www.w3.org/2000/svg" xmlns:xlink="http://www.w3.org/1999/xlink" version="1.1" viewBox="0 0 99.883 100" overflow="visible" enable-background="new 0 0 99.883 100" xml:space="preserve" x="0px" y="0px"><path fill="#FFFFFF" d="M0,66.828v4.428C1.098,78.679,25.121,100,30.618,100h38.647c5.496,0,29.52-21.321,30.617-28.745v-4.428H0z"/><g><path fill="#FFFFFF" d="M71.614,43.042c0.178-0.138,4.363-3.416,4.585-7.457l0,0c0.038-0.689-0.49-1.279-1.18-1.317   s-1.278,0.49-1.316,1.179l0,0c-0.159,2.894-3.585,5.59-3.619,5.617c0.068-0.054,0.142-0.099,0.221-0.137l-0.22,0.136   c-0.546,0.422-0.646,1.207-0.225,1.753S71.067,43.463,71.614,43.042L71.614,43.042z"/></g><g><path fill="#FFFFFF" d="M73.628,59.742c-1.531-0.398-4.713-0.451-5.791,2.199l0,0c-0.26,0.64,0.048,1.368,0.688,1.629   c0.64,0.26,1.368-0.048,1.629-0.688l0,0c0.522-1.285,2.822-0.727,2.846-0.721l0,0c0.668,0.174,1.351-0.228,1.524-0.896   S74.296,59.916,73.628,59.742L73.628,59.742z"/></g><path fill="#FFFFFF" d="M97.637,54.542c-4.474,2.049-9.854,7.622-7.916,8.641c1.937,1.019,4.706-0.634,7.666-2.979  C100.347,57.858,100.969,53.014,97.637,54.542z"/><g><path fill="#FFFFFF" d="M61.918,38.932c-1.984,0.083-4.756,0.5-5.922,3.162c-0.001,0.001-0.179,0.4-0.179,0.4   c-0.428,0.95-0.87,1.933-0.446,2.971c0.418,1.026,1.509,1.563,2.412,1.917c2.985,1.168,6.558,0.515,8.132-1.489   c0.867-1.103,0.915-2.818,0.121-4.369C65.182,39.854,63.604,38.862,61.918,38.932z M63.95,44.347c-0.785,1-3.138,1.535-5.257,0.706   c-0.858-0.336-1.015-0.549-1.021-0.558c0.013,0.018,0.026,0.06,0.026,0.082c-0.004-0.166,0.229-0.681,0.397-1.057l0.189-0.424   c0.333-0.76,1.038-1.554,3.735-1.666c1.052-0.044,1.635,0.932,1.789,1.232C64.172,43.368,64.165,44.073,63.95,44.347z"/></g><g><path fill="#FFFFFF" d="M45.879,40.212c-2.1-0.233-3.716,1.188-5.191,2.664c-0.718,0.718-1.805,1.804-1.741,3.219   c0.043,0.942,0.568,1.821,1.605,2.685c0,0,0.433,0.365,0.433,0.365c1.905,1.614,3.228,2.514,6.265,0.742   c2.726-1.59,2.892-2.827,2.829-4.401c-0.007-0.168-0.014-0.343-0.014-0.52C50.065,42.755,47.455,40.388,45.879,40.212z    M47.565,44.966c0,0.227,0.008,0.436,0.016,0.62c0.038,0.935,0.048,1.186-1.59,2.142c-1.665,0.971-1.828,0.833-3.389-0.49   l-0.448-0.378c-0.513-0.427-0.702-0.74-0.708-0.877c-0.014-0.313,0.731-1.058,1.011-1.338c1.275-1.276,2.247-2.047,3.148-1.947   c-0.013-0.001-0.02-0.003-0.02-0.003C46.129,42.814,47.565,44.152,47.565,44.966z"/></g><path fill="#FFFFFF" d="M56.561,53.749c-2.514-1.143-8.519-3.468-9.985-0.387c-0.312,0.652-0.946,1.363-1.505,1.991  c-0.972,1.09-1.891,2.119-1.584,3.334c0.178,0.704,0.714,1.224,1.596,1.544c2.937,1.067,6.611,2.107,8.979,0.66  c1.943-1.187,2.591-3.593,2.939-4.885c0.06-0.222,0.134-0.497,0.168-0.579C57.433,54.804,57.177,54.029,56.561,53.749z   M52.759,58.758c-1.567,0.957-5.169-0.279-6.616-0.802c0.218-0.291,0.543-0.66,0.793-0.939c0.667-0.748,1.421-1.596,1.887-2.563  c0.468-0.384,2.977,0.054,5.699,1.143C54.238,56.63,53.771,58.14,52.759,58.758z M93.276,46.731  c-0.113-2.714-0.481-3.339-1.594-4.566l-0.152-0.169c-0.955-1.061-2.239-1.506-3.617-1.254c-2.114,0.387-3.903,2.264-4.513,3.833  c-0.162,0.416-0.369,0.821-0.569,1.212c-0.708,1.388-1.59,3.115-0.028,5.157c2.014,2.633,4.144,2.804,7.122,0.571  c0.692-0.52,1.203-0.82,1.614-1.062C93.092,49.538,93.368,48.946,93.276,46.731z M53.9,29.78c-1.739-0.263-5.884-0.635-6.811,1.589  c-0.745,1.788-0.512,5.102-0.483,5.473c0.045,0.583,0.489,1.057,1.068,1.14c0.56,0.081,5.534,0.75,7.9-0.432  c1.425-0.713,2.113-2.375,1.756-4.234C56.95,31.341,55.539,29.916,53.9,29.78z"/><path fill="#FFFFFF" d="M12.602,38.844L12.602,38.844l0.034-0.005c-0.534-3.589-0.841-5.708-1.377-8.776  C8.242,12.813,5.494-0.235,3.57,0.003c-0.01,0-0.018,0-0.023,0.003c-0.005,0-0.011,0.001-0.015,0.001  C3.527,0.009,3.522,0.009,3.517,0.01C3.511,0.011,3.503,0.012,3.494,0.014C1.574,0.28,3.063,15.05,5.883,32  c0.511,3.074,0.816,4.243,1.438,7.875c0,0-5.53,4.177-4.374,9.492c0.861,3.958,5.42,14.332,5.897,14.928  c-1.103-6.002-1.398-13.729,0.102-13.729c1-0.25,3.438,8,4.875,13.063c0,0-0.313-13.813,0.875-13.875  c1.517-0.08,2.989,7.23,3.477,13.313c0.307-0.7,2.024-11.899,1.832-15.946C19.745,41.688,12.602,38.844,12.602,38.844z"/><path fill="#FFFFFF" d="M83.373,56.922c-0.315-0.737-1.683-2.813-6.615-1.704c0.046-1.517-0.463-2.974-1.506-4.083  c-1.335-1.42-3.201-1.956-4.87-1.399c-1.011,0.337-2.653,1.342-3.415,4.284c-1.672-0.634-3.307-0.628-4.577,0.064  c-1.169,0.638-1.877,1.803-1.895,3.115c-0.025,1.972,1.443,3.963,4.03,5.462c0.598,0.347,1.362,0.144,1.708-0.454  c0.347-0.598,0.144-1.362-0.454-1.708c-2.068-1.199-2.794-2.474-2.784-3.267c0.007-0.525,0.325-0.808,0.592-0.953  c0.672-0.366,1.982-0.387,3.646,0.654c0.364,0.229,0.82,0.253,1.207,0.065c0.388-0.187,0.651-0.56,0.698-0.987  c0.236-2.129,0.978-3.553,2.034-3.904c0.723-0.241,1.608,0.049,2.258,0.739c0.887,0.944,1.092,2.311,0.549,3.656  c-0.183,0.452-0.085,0.971,0.25,1.325c0.335,0.355,0.847,0.483,1.309,0.327c3.688-1.245,5.347-0.692,5.537-0.249  c0.213,0.496-0.568,2.099-3.336,3.555c-0.611,0.322-0.846,1.078-0.524,1.688c0.322,0.611,1.078,0.846,1.688,0.524  C82.497,61.783,84.293,59.069,83.373,56.922z M36.481,56.146c1.012-1.692,1.121-3.712,0.675-5.244  c-0.505-1.736-1.662-2.902-3.094-3.118c-0.93-0.14-2.246,0.08-3.703,1.567c-0.794-1.249-1.797-2.044-2.898-2.234  c-1.053-0.182-2.059,0.205-2.759,1.062c-1.244,1.521-1.286,4.226-0.113,7.235c0.25,0.643,0.975,0.961,1.619,0.711  c0.643-0.251,0.961-0.976,0.71-1.619c-1.06-2.719-0.675-4.262-0.28-4.745c0.156-0.191,0.283-0.199,0.397-0.18  c0.394,0.068,1.234,0.674,1.892,2.514c0.16,0.445,0.558,0.764,1.028,0.82s0.933-0.158,1.193-0.554  c1.1-1.668,2.034-2.181,2.542-2.104c0.429,0.064,0.848,0.592,1.066,1.344c0.363,1.246,0.153,3.005-1.133,4.123  c-0.337,0.294-0.492,0.746-0.405,1.186c0.086,0.439,0.401,0.799,0.826,0.942c2.981,1.008,3.832,2.374,3.676,3.047  c-0.163,0.704-1.434,1.311-3.469,1.048c-0.685-0.089-1.312,0.395-1.4,1.079s0.395,1.312,1.08,1.399  c3.716,0.48,5.804-1.142,6.226-2.963C40.531,59.834,39.698,57.695,36.481,56.146z"/><g><path fill="#FFFFFF" d="M32.489,58.288c-0.138-0.196-1.4-1.92-3.115-2.129c-0.814-0.1-1.591,0.147-2.246,0.715l0,0   c-0.522,0.452-0.579,1.241-0.127,1.764c0.452,0.521,1.241,0.578,1.763,0.127l0,0c0.163-0.141,0.249-0.131,0.306-0.124   c0.424,0.05,1.074,0.667,1.38,1.093l-0.003-0.004c0.398,0.564,1.178,0.698,1.742,0.301C32.752,59.631,32.887,58.851,32.489,58.288   L32.489,58.288z"/></g></svg>