<svg width='200' height='200' fill="#FFFFFF" xmlns="http://www.w3.org/2000/svg" xmlns:xlink="http://www.w3.org/1999/xlink" xmlns:a="http://ns.adobe.com/AdobeSVGViewerExtensions/3.0/" version="1.1" x="0px" y="0px" viewBox="-12.98 -15.909 99 100" enable-background="new -12.98 -15.909 99 100" xml:space="preserve"><path d="M0,35.995c0,8.982,17.964,21.957,17.964,23.753s0,3.593,0,3.593h35.927c0,0,0-2.195,0-3.793  c0-1.596,17.964-14.57,17.964-23.553C68.262,35.833,5.788,35.833,0,35.995z"/><path d="M71.855,31.443c0-2.103,0-3.631,0-3.631H0c0,0,0,1.528,0,3.631H71.855z"/><path d="M63.565,13.776c-3.166,1.385-6.242,2.799-7.349,3.576c-0.179,0.475-0.36,0.898-0.536,1.312  c-0.191,0.445-0.388,0.906-0.59,1.451l-1.404,3.776l-2.562-3.109c-0.132-0.161-0.386-0.43-0.598-0.43  c-0.037,0-0.079,0.005-0.126,0.014l-1.737,0.348l-0.793-1.585c-0.02-0.039-0.039-0.072-0.057-0.099l-1.921,0.96l-1.046-2.07  c-0.086-0.15-0.479-0.515-0.844-0.515c-0.323,0-0.693,0.322-0.885,0.513L41.936,19.1l-1.496-0.748  c-0.146-0.072-0.543-0.243-1.056-0.243c-0.889,0-1.75,0.538-2.562,1.601l-3.982-2.309c1.604-3.807,5.562-7.721,8.255-8.988  c1.887-0.889,3.612-1.32,5.273-1.32c2.28,0,4.043,0.795,5.708,1.646c0.549-0.204,1.318-0.539,2.221-0.955  c-1.726-1.678-3.793-2.63-5.861-1.596c-1.797-3.593-10.18-6.587-17.365,0.599c-3.593-1.796-13.173-1.796-14.97,7.186  c-1.796-1.796-5.389-1.796-7.186,1.796c-5.389-1.796-7.186,9.58-7.186,9.58h68.263C69.993,25.348,68.083,17.392,63.565,13.776z"/><path fill-rule="evenodd" clip-rule="evenodd" d="M75.622,0.135c-3.402,0.842-20.666,10.515-23.787,11.089  c-2.838-1.463-5.215-2.847-9.751-0.712c-2.103,0.99-3.093,2.042-5.018,5.195c2.788-1.834,3.202-0.035,4.411,0.57  c2.42-2.419,4.839-0.605,5.443,0.604c1.21-0.604,2.42,0,3.024,1.209c1.317-0.263,2.291,0.392,2.97,1.216  c0.494-1.328,0.926-2.125,1.322-3.314c2.172-2.347,20.719-9.087,23.545-11.247C80.61,2.587,79.023-0.708,75.622,0.135z"/></svg>