<svg width='200' height='200' fill="#FFFFFF" xmlns="http://www.w3.org/2000/svg" xmlns:xlink="http://www.w3.org/1999/xlink" version="1.1" x="0px" y="0px" viewBox="0 0 52 52" enable-background="new 0 0 52 52" xml:space="preserve"><g><g><path d="M48,30.2648602H4c-1.1030273,0-2-0.8969727-2-2v-4c0-1.1030273,0.8969727-2,2-2h44c1.1030273,0,2,0.8969727,2,2v4    C50,29.3678875,49.1030273,30.2648602,48,30.2648602z M4,24.2648602v4h44v-3.9970703L4,24.2648602z M48,24.2648602h1H48    L48,24.2648602L48,24.2648602z"/></g><g><path d="M35.0473633,50.2629089H16.9516602c-4.0053711,0-7.4697266-2.5776367-8.6206055-6.4140625l-4.2895508-14.29883    c-0.0908203-0.3027344-0.0332031-0.6303711,0.1557617-0.8842773c0.1884766-0.253418,0.4863281-0.402832,0.8022461-0.402832h42    c0.315918,0,0.6137695,0.1494141,0.8022461,0.402832c0.1889648,0.2539063,0.246582,0.581543,0.1557617,0.8842773    l-4.2895508,14.29883C42.5170898,47.6852722,39.0527344,50.2629089,35.0473633,50.2629089z M6.34375,30.262907    l3.9033203,13.0117207c0.8950195,2.9833984,3.5893555,4.9882813,6.7045898,4.9882813h18.0957031    c3.1152344,0,5.8095703-2.0048828,6.7045898-4.9882813l3.9033203-13.0117207H6.34375z"/></g><g><path d="M32.2299805,24.2648602H19.7700195c-0.3032227,0-0.5898438-0.1376953-0.7797852-0.3740234    C17.7070313,22.2931805,17,20.2878094,17,18.2448406c0-4.9624014,4.0375977-8.999999,9-8.999999s9,4.0375977,9,8.999999    c0,2.0429688-0.7070313,4.0483398-1.9902344,5.6459961C32.8198242,24.1271648,32.5332031,24.2648602,32.2299805,24.2648602z     M20.2695313,22.2648602h11.4609375C32.5522461,21.0890789,33,19.6784344,33,18.2448406    c0-3.8598623-3.1401367-6.999999-7-6.999999s-7,3.1401367-7,6.999999C19,19.6784344,19.4477539,21.0890789,20.2695313,22.2648602z    "/></g><g><path d="M17.1699219,24.2648602H6.8300781c-0.3525391,0-0.6787109-0.1855469-0.859375-0.4882813    C5.3359375,22.7096844,5,21.488493,5,20.2448406c0-3.8598633,3.1401367-6.999999,7-6.999999s7,3.1401358,7,6.999999    c0,1.2446289-0.3359375,2.4663086-0.9711914,3.5322266C17.8486328,24.0793133,17.5224609,24.2648602,17.1699219,24.2648602z     M7.4345703,22.2648602h9.1308594C16.8510742,21.6330242,17,20.9445477,17,20.2448406c0-2.7568359-2.2431641-4.999999-5-4.999999    s-5,2.2431631-5,4.999999C7,20.9440594,7.1489258,21.6325359,7.4345703,22.2648602z"/></g><g><path d="M45.1699219,24.2648602H34.8300781c-0.3525391,0-0.6787109-0.1855469-0.859375-0.4882813    C33.3359375,22.7096844,33,21.488493,33,20.2448406c0-3.8598633,3.1401367-6.999999,7-6.999999s7,3.1401358,7,6.999999    c0,1.2446289-0.3359375,2.4663086-0.9711914,3.5322266C45.8486328,24.0793133,45.5224609,24.2648602,45.1699219,24.2648602z     M35.4345703,22.2648602h9.1308594C44.8510742,21.6330242,45,20.9445477,45,20.2448406c0-2.7568359-2.2431641-4.999999-5-4.999999    s-5,2.2431631-5,4.999999C35,20.9440594,35.1489258,21.6325359,35.4345703,22.2648602z"/></g><g><path d="M33.9990234,17.7550945c-0.1611328,0-0.324707-0.0390625-0.4765625-0.121582    c-0.4853516-0.2636719-0.6650391-0.8706055-0.4008789-1.355957L40.7407227,2.25949    c0.2631836-0.4848633,0.8701172-0.6645508,1.355957-0.4008789c0.4853516,0.2636719,0.6650391,0.8706055,0.4008789,1.355957    L34.878418,17.2326336C34.6972656,17.5661297,34.3540039,17.7550945,33.9990234,17.7550945z"/></g></g></svg>