<!-- Generated by IcoMoon.io -->
<svg version="1.1" xmlns="http://www.w3.org/2000/svg" width="28" height="28" viewBox="0 0 28 28">
<title>codewars</title>
<path fill="#93ca44" d="M25.636 0.018h-23.296c-1.284 0-2.334 1.050-2.334 2.334v23.296c0 1.284 1.050 2.334 2.334 2.334h23.296c1.284 0 2.334-1.050 2.334-2.334v-23.296c0-1.284-1.050-2.334-2.334-2.334zM26.166 16.636c-0.116 0.114-0.225 0.233-0.381 0.394 0.225 1.349-0.659 2.15-1.628 2.898-1.010 0.78-2.020 1.559-3.041 2.322-0.228 0.171-0.507 0.273-0.765 0.408-0.637 1.758-0.877 1.974-2.226 1.943-0.323 0.868-0.963 1.213-1.896 0.968-0.062-0.016-0.158-0.071-0.179-0.050-0.906 0.933-1.947 0.214-2.892 0.152-0.698-0.046-1.405-0.494-2.034-0.882-0.531-0.329-0.907-0.933-1.662-0.758-0.029 0.007-0.070-0.001-0.094-0.017-0.728-0.527-1.608-0.203-2.347-0.402-0.958-0.257-1.81-0.927-2.687-1.453-0.132-0.079-0.158-0.341-0.225-0.521-0.045-0.121-0.045-0.333-0.115-0.358-0.958-0.327-0.921-1.237-1.239-1.966-0.295-0.678-0.5-1.284-0.126-1.988 0.088-0.166 0.084-0.444 0.010-0.624-0.483-1.154-0.494-1.151-0.375-2.299-0.99-0.844-1.137-1.486-0.332-2.503-0.323-0.731-0.485-1.469 0.396-1.997 0.066-0.039 0.087-0.168 0.111-0.26 0.287-1.128 1.14-1.838 2.034-2.392 0.82-0.508 1.818-0.635 2.359-1.662 0.202-0.383 0.829-0.608 0.955-1.192 0.030-0.138 0.183-0.274 0.313-0.361 0.646-0.432 1.4-0.655 1.99-1.238 0.248-0.245 0.94-0.040 1.596-0.040 0.872-1.089 2.070-0.204 3.176-0.062 0.523 0.067 0.991 0.533 1.496 0.794 0.222 0.116 0.469 0.19 0.713 0.25 0.154 0.038 0.343-0.033 0.481 0.027 0.775 0.337 1.548 0.556 2.392 0.23 0.116-0.045 0.375 0.044 0.441 0.149 0.543 0.867 1.642 0.587 2.306 1.151 0.191 0.162 0.221 0.513 0.352 0.843 0.635 0.207 1.328 0.458 1.16 1.409 0.681 0.42 0.235 1.306 0.743 1.796-0.535 1.171 0.713 2.147 0.362 3.377 0.166 0.116 0.417 0.221 0.564 0.408 0.212 0.269 0.568 0.735 0.48 0.877-0.543 0.868 0.634 1.824-0.185 2.63zM13.715 6.024c-1.291 0.478-1.306 0.5-1.018 1.658-0.627 0.279-1.007 0.733-0.676 1.495 0.042 0.097 0.017 0.278-0.051 0.358-0.297 0.348-0.241 0.67-0.087 1.074 0.085 0.222-0.081 0.54-0.134 0.811 0.276 0.38 0.575 0.741 0.81 1.141 0.088 0.15 0.11 0.488 0.020 0.56-0.14 0.111-0.438 0.147-0.607 0.073-0.675-0.294-1.386-0.563-1.97-0.995-0.457-0.338-0.777-0.882-1.102-1.37-0.238-0.357-0.385-0.774-0.661-1.347 0.061-0.122 0.221-0.423 0.365-0.732 0.101-0.217 0.307-0.493 0.245-0.66-0.183-0.491 0.167-0.869 0.175-1.269 0.020-1.036 1.165-1.246 1.373-2.096 1.108-0.488 2.132-1.291 3.47-0.893 0.207 0.061 0.435 0.058 0.625 0.080 0.241 0.488-0.018 0.758-0.263 1.079-0.224 0.294-0.339 0.669-0.514 1.033zM21.735 6.926c0.489 0.433 0.866 0.767 1.292 1.145 0.104 0.461 0.224 0.989 0.343 1.515-0.066 0.052-0.131 0.103-0.197 0.154-0.86-0.561-1.951 0.061-2.783-0.667-0.063-0.055-0.189-0.073-0.278-0.059-0.833 0.127-1.707 0.145-2.486 0.424-1.47 0.528-2.815 1.306-3.752 2.816-0.643-0.682-0.636-1.382-0.489-2.074 0.142-0.668 0.38-1.318 0.592-2.032 0.813 0.009 0.777-0.753 0.998-1.204 1.809-0.695 3.547-1.453 5.594-0.732 0.193 0.45 0.569 0.914 1.166 0.713zM13.912 14.844c0.722 1.562 0.2 2.931-0.451 4.221-0.278 0.367-0.558 0.731-0.834 1.1-0.077 0.102-0.141 0.309-0.211 0.308-0.973-0.002-1.554 0.966-2.579 0.955-0.822-0.008-1.604 0.148-2.445-0.138-0.984-0.335-1.768-0.843-2.502-1.568-0.6-0.592-0.758-1.171-0.541-1.942h1.97c0.472 0.576 1.14 0.891 2.002 0.377 0.142-0.085 0.368-0.018 0.553-0.042 0.374-0.047 0.751-0.085 1.117-0.168 0.362-0.082 0.712-0.217 1.067-0.327 0.123-0.038 0.281-0.036 0.362-0.115 0.515-0.497 1.023-1.003 1.515-1.522 0.309-0.327 0.586-0.684 0.974-1.14zM5.943 7.935c-0.092 0.809 0.008 1.442 0.767 1.835-0.298 0.839-0.354 1.577 0.678 1.876 0.058 0.017 0.147 0.066 0.15 0.105 0.077 0.921 0.885 1.018 1.475 1.425 0.945 0.651 1.887 1.067 3.046 0.929 0.19-0.023 0.394 0.073 0.609 0.118-0.117 0.929-0.822 1.367-1.397 1.571-1.089 0.388-2.195 1.102-3.472 0.479-0.244-0.119-0.622 0.036-0.837 0.055-1.332-0.619-1.972-1.901-3.089-2.726 0.053-0.578 0.482-1.256-0.25-1.645 0.18-1.763 0.811-3.143 2.319-4.021zM22.165 19.789c-0.124-0.333-0.319-0.588-0.279-0.798 0.123-0.641-0.13-1.066-0.683-1.418 0.255-0.783-0.014-1.357-0.715-1.774-0.158-0.094-0.292-0.34-0.314-0.53-0.063-0.543-0.348-0.804-0.87-0.869-0.155-0.019-0.368-0.046-0.444-0.149-0.753-1.041-1.921-1.022-3.009-1.211-0.263-0.046-0.526-0.081-0.815-0.126 0.080-0.935 0.831-1.206 1.319-1.385 1.117-0.411 2.334-0.971 3.53-0.461 0.952 0.406 2.123 0.474 2.752 1.541 0.192 0.327 0.637 0.507 0.965 0.753 0.184 0.566 0.377 1.158 0.599 1.844v1.916c-0.511 0.773-0.9 1.843-2.036 2.667zM11.089 23.057c1.823 0.024 2.018-0.095 2.427-1.436 0.776-0.258 1.444-0.663 1.453-1.657 0.001-0.122 0.188-0.241 0.29-0.361 0.122-0.146 0.333-0.282 0.353-0.441 0.144-1.185 0.399-2.376-0.017-3.557-0.164-0.468-0.348-0.93-0.594-1.582 0.477 0.048 0.795 0.018 1.064 0.117 1.148 0.421 2.067 1.192 2.785 2.146 0.338 0.449 0.427 1.085 0.684 1.785-0.283 0.416-0.414 1.018 0.109 1.628-0.689 0.558-1.047 1.215-0.935 1.976-0.546 0.523-1.040 0.999-1.678 1.611-0.355 0.158-0.925 0.411-1.46 0.649-0.462 0.087-0.913 0.213-1.37 0.246-0.441 0.032-0.975 0.111-1.313-0.090-0.562-0.335-1.464-0.082-1.796-1.034z"></path>
</svg>
