<!-- Generated by IcoMoon.io -->
<svg version="1.1" xmlns="http://www.w3.org/2000/svg" width="43" height="16" viewBox="0 0 43 16" fill="#93ca44">
<title>cs50</title>
<path d="M7.227 2.368c-2.203 0.363-3.883 1.867-4.539 4.064-0.123 0.411-0.144 0.603-0.165 1.381-0.021 0.768-0.011 0.987 0.080 1.419 0.384 1.861 1.632 3.365 3.381 4.075 0.715 0.288 1.216 0.373 2.229 0.373 1.403-0.005 2.219-0.219 3.141-0.827 0.453-0.299 1.285-1.029 1.285-1.125 0-0.064-1.44-1.541-1.504-1.541-0.032 0-0.197 0.123-0.373 0.267-0.405 0.341-0.939 0.656-1.349 0.805-0.245 0.091-0.485 0.123-1.013 0.139-0.64 0.027-0.725 0.016-1.093-0.107-0.576-0.197-0.891-0.384-1.264-0.773-0.405-0.411-0.763-1.093-0.896-1.691-0.133-0.603-0.091-1.52 0.096-2.043 0.384-1.093 1.168-1.845 2.197-2.117 0.405-0.101 1.243-0.101 1.653 0 0.453 0.112 1.109 0.459 1.536 0.8 0.197 0.16 0.379 0.293 0.405 0.293 0.043 0 0.699-0.731 1.312-1.461l0.261-0.315-0.261-0.235c-0.736-0.651-1.627-1.104-2.56-1.307-0.629-0.133-1.973-0.171-2.56-0.075z"></path>
<path d="M35.003 2.368c-1.013 0.197-1.792 0.624-2.528 1.397-0.395 0.421-0.597 0.725-0.907 1.381-0.837 1.744-0.827 4.053 0.021 5.808 0.464 0.949 1.008 1.579 1.824 2.085 1.275 0.795 3.147 0.88 4.48 0.208 1.109-0.56 1.92-1.488 2.421-2.768 0.309-0.779 0.384-1.2 0.416-2.267 0.021-0.715 0.005-1.045-0.059-1.419-0.389-2.235-1.712-3.851-3.568-4.352-0.507-0.133-1.579-0.171-2.101-0.075zM36.656 4.709c0.645 0.299 1.227 1.109 1.461 2.037 0.133 0.539 0.133 1.979 0 2.549-0.299 1.259-1.109 2.101-2.085 2.16-0.768 0.048-1.376-0.245-1.824-0.875-0.549-0.768-0.741-1.531-0.699-2.789 0.027-0.939 0.096-1.253 0.405-1.899 0.32-0.667 0.736-1.077 1.285-1.275 0.379-0.133 1.067-0.096 1.456 0.091z"></path>
<path d="M16.533 2.379c-1.445 0.283-2.373 1.003-2.811 2.197-0.101 0.267-0.139 0.501-0.16 0.944-0.075 1.589 0.619 2.549 2.277 3.147 0.219 0.075 0.832 0.261 1.36 0.405 1.157 0.32 1.611 0.491 1.872 0.704 0.469 0.389 0.459 1.061-0.027 1.413-0.304 0.219-0.683 0.304-1.312 0.293-0.923-0.016-1.797-0.331-2.667-0.955-0.235-0.165-0.448-0.309-0.48-0.32-0.032-0.016-0.379 0.363-0.768 0.837l-0.72 0.864 0.187 0.155c0.629 0.533 1.717 1.115 2.448 1.323 1.040 0.288 2.373 0.352 3.307 0.16 1.371-0.277 2.379-1.168 2.693-2.373 0.117-0.432 0.117-1.44 0-1.867-0.117-0.448-0.368-0.837-0.763-1.2-0.571-0.528-1.387-0.875-3.339-1.413-1.173-0.325-1.509-0.523-1.632-0.992-0.080-0.288-0.016-0.56 0.176-0.779 0.213-0.245 0.389-0.325 0.848-0.395 0.821-0.128 1.808 0.187 3.077 0.965 0.112 0.075 0.128 0.069 0.224-0.053 0.192-0.261 1.125-1.627 1.147-1.68 0.032-0.080-0.736-0.576-1.333-0.859-0.837-0.395-1.376-0.512-2.512-0.528-0.528-0.011-1.019-0.005-1.093 0.005z"></path>
<path d="M23.125 2.571c-0.027 0.139-0.304 4.869-0.299 5.173 0 0.197 0.011 0.208 0.688 0.661l0.688 0.453 0.496-0.171c0.48-0.171 0.539-0.176 1.307-0.181h0.805l0.368 0.187c0.448 0.229 0.683 0.512 0.768 0.939 0.155 0.736-0.171 1.392-0.821 1.68-0.203 0.091-0.405 0.128-0.811 0.144-0.635 0.027-1.035-0.059-1.595-0.341-0.325-0.165-0.491-0.277-1.067-0.725-0.117-0.091-0.123-0.085-0.752 0.661-0.347 0.416-0.683 0.816-0.736 0.885l-0.107 0.133 0.213 0.187c0.587 0.512 1.547 1.051 2.192 1.232 1.227 0.336 2.832 0.261 3.829-0.181 1.024-0.453 1.813-1.419 2.027-2.491 0.171-0.875 0.069-1.979-0.251-2.656-0.224-0.475-0.896-1.136-1.381-1.371-0.939-0.448-2.347-0.571-3.456-0.299l-0.128 0.032 0.037-0.581c0.016-0.32 0.048-0.741 0.069-0.944l0.032-0.357h4.677l-0.011-1.083-0.016-1.077-6.747-0.027-0.021 0.117z"></path>
</svg>
