<!-- Generated by IcoMoon.io -->
<svg version="1.1" xmlns="http://www.w3.org/2000/svg" width="32" height="32" viewBox="0 0 32 32" fill="#93ca44">
<title>email</title>
<path fill="#93ca44" d="M30.32 15.84c0 7.997-6.483 14.48-14.48 14.48s-14.48-6.483-14.48-14.48c0-7.997 6.483-14.48 14.48-14.48s14.48 6.483 14.48 14.48z"></path>
<path fill="#93ca44" d="M15.84 28.252c-6.844 0-12.411-5.568-12.411-12.412s5.568-12.411 12.411-12.411c6.844 0 12.412 5.568 12.412 12.411s-5.568 12.412-12.412 12.412v0z"></path>
<path fill="#ffffff" d="M15.84 2.601c7.312 0 13.239 5.927 13.239 13.239s-5.927 13.239-13.239 13.239c-7.312 0-13.239-5.927-13.239-13.239s5.927-13.239 13.239-13.239zM15.84 4.256c-6.388 0-11.584 5.196-11.584 11.584s5.196 11.584 11.584 11.584c6.388 0 11.584-5.196 11.584-11.584s-5.196-11.584-11.584-11.584v0z"></path>
<path fill="#ffffff" stroke="#93ca44" stroke-width="0.96" stroke-miterlimit="4" stroke-linecap="butt" stroke-linejoin="miter" d="M28.080 16.24c0-0.997-0.786-2.364-1.024-3.287l-15.889-8.854-7.705 13.826 16.001 8.916c3.818 0.039 8.618-5.478 8.618-10.601z"></path>
<path fill="#ffffff" stroke="#93ca44" stroke-width="0.96" stroke-miterlimit="4" stroke-linecap="round" stroke-linejoin="round" d="M20.18 27.2l-16.612-9.284 15.848-3.933 4.184 11.697z"></path>
<path fill="#ffffff" stroke="#93ca44" stroke-width="0.96" stroke-miterlimit="4" stroke-linecap="butt" stroke-linejoin="miter" d="M16.756 20.141l11.105-2.405c0.061-0.482 0.579-0.879 0.579-1.376 0-0.994-0.004-1.719-0.24-2.64l-16.437-9.126 4.993 15.547z"></path>
<path fill="#ffffff" d="M25.148 6.426c-2.155-2.131-5.038-3.523-8.242-3.779v1.659c2.649 0.243 5.043 1.38 6.875 3.107 2.242 2.114 3.643 5.11 3.643 8.427 0 6.388-5.196 11.584-11.584 11.584-1.877 0-3.652-0.449-5.222-1.245-2.092-1.060-3.817-2.739-4.942-4.792h-1.858c1.277 2.764 3.478 5.014 6.208 6.35 1.755 0.86 3.728 1.342 5.814 1.342 7.312 0 13.239-5.927 13.239-13.239 0-3.682-1.503-7.014-3.93-9.413z"></path>
</svg>
