<!-- Generated by IcoMoon.io -->
<svg version="1.1" xmlns="http://www.w3.org/2000/svg" width="35" height="24" viewBox="0 0 35 24">
<title>freecodecump</title>
<path fill="#93ca44" d="M5.84 23.964c-0.604-0.144-1.478-0.902-2.446-2.123-1.966-2.477-3.035-5.255-3.349-8.713-0.061-0.665-0.060-2.349 0.001-2.966 0.287-2.905 1.304-5.407 3.17-7.8 0.572-0.733 1.518-1.693 1.971-1.999 0.641-0.433 1.045-0.468 1.433-0.125 0.158 0.14 0.194 0.205 0.214 0.386 0.038 0.339-0.136 0.603-0.943 1.437-1.128 1.165-1.649 1.814-2.225 2.773-1.309 2.178-1.869 4.469-1.789 7.315 0.043 1.516 0.205 2.634 0.563 3.877 0.322 1.12 0.71 2.023 1.288 3.008 0.582 0.989 1.070 1.614 2.048 2.62 0.857 0.883 1.070 1.189 1.070 1.541 0 0.35-0.247 0.666-0.596 0.763-0.193 0.053-0.206 0.054-0.412 0.005zM28.476 23.977c-0.182-0.039-0.508-0.39-0.546-0.587-0.059-0.317 0.13-0.601 1.010-1.513 0.434-0.449 0.967-1.039 1.185-1.312 1.598-1.993 2.486-4.21 2.723-6.799 0.073-0.798 0.035-2.855-0.067-3.626-0.213-1.615-0.607-2.937-1.288-4.327-0.652-1.33-1.328-2.273-2.468-3.448-0.766-0.789-0.992-1.077-1.068-1.364-0.076-0.281-0.021-0.49 0.19-0.729 0.289-0.329 0.619-0.358 1.136-0.101 0.626 0.31 1.435 1.123 2.376 2.381 1.892 2.53 2.869 5.315 3.103 8.851 0.2 3.005-0.529 6.047-2.053 8.566-1.051 1.739-2.656 3.521-3.509 3.899-0.224 0.099-0.544 0.147-0.724 0.109zM9.586 22.145c-0.512-0.155-0.808-0.666-0.685-1.18 0.077-0.318 0.395-0.644 0.706-0.723 0.313-0.079 16.487-0.079 16.8 0 0.32 0.080 0.634 0.408 0.704 0.734 0.091 0.428-0.101 0.865-0.473 1.078l-0.197 0.113-8.364 0.008c-4.6 0.005-8.421-0.010-8.491-0.031zM15.957 18.213c-1.553-0.565-2.846-1.666-3.507-2.988-0.367-0.735-0.581-1.625-0.581-2.423 0-1.079 0.422-2.107 1.707-4.159 0.957-1.529 1.12-1.808 1.402-2.395 0.374-0.782 0.498-1.246 0.505-1.902 0.008-0.627-0.086-0.999-0.375-1.485-0.205-0.345-0.666-0.865-0.853-0.962-0.305-0.158-0.368-0.372-0.152-0.514 0.343-0.224 1.279-0.083 2.139 0.326 0.974 0.461 1.691 1.123 2.158 1.991 0.36 0.669 0.506 1.182 0.749 2.647 0.271 1.626 0.54 2.142 1.083 2.080 0.288-0.033 0.467-0.142 0.589-0.358 0.193-0.344 0.11-0.814-0.28-1.592-0.319-0.636-0.299-0.828 0.075-0.729 0.193 0.051 0.823 0.565 1.259 1.027 1.090 1.158 1.632 2.21 1.893 3.672 0.136 0.767 0.148 2.038 0.024 2.702-0.157 0.838-0.473 1.63-0.924 2.306-0.503 0.755-1.55 1.709-2.312 2.106-0.344 0.179-0.463 0.191-0.632 0.058-0.21-0.165-0.166-0.28 0.299-0.773 0.697-0.74 1.052-1.266 1.259-1.861 0.318-0.919 0.16-2.2-0.373-3.017-0.221-0.338-0.544-0.637-0.691-0.637-0.080 0-0.067 0.106 0.082 0.649 0.052 0.19 0.095 0.423 0.095 0.518 0 0.497-0.702 0.858-1.321 0.678-0.503-0.146-0.724-0.602-0.658-1.353 0.020-0.232 0.039-0.654 0.041-0.937 0.004-0.5-0.002-0.525-0.16-0.837-0.308-0.608-1.021-1.234-1.405-1.234-0.166 0-0.179 0.010-0.179 0.132 0 0.082 0.046 0.175 0.121 0.245 0.398 0.371 0.473 1.132 0.178 1.803-0.182 0.415-0.388 0.65-1.091 1.247-0.924 0.784-1.222 1.158-1.406 1.764-0.085 0.28-0.095 0.395-0.071 0.908 0.040 0.863 0.216 1.435 0.627 2.040 0.316 0.465 0.685 0.76 1.187 0.947 0.242 0.090 0.268 0.113 0.268 0.235 0 0.141-0.107 0.233-0.265 0.229-0.047-0.002-0.273-0.071-0.504-0.154z"></path>
</svg>
