<!-- Generated by IcoMoon.io -->
<svg version="1.1" xmlns="http://www.w3.org/2000/svg" width="29" height="32" viewBox="0 0 29 32">
<title>habrahabr</title>
<path fill="#93ca44" d="M18.519 17.389c0.108 0.045 0.216 0.081 0.334 0.126 0.054-0.135 0.090-0.298 0.108-0.478-0.162-0.009-0.316-0.009-0.469-0.018 0.009 0.135 0.018 0.253 0.027 0.37zM13.415 4.627c0.595 0.153 1.398 0.325 1.993 0.334-1.064-1.452-2.805-1.786-4.383-1.362 1.046 0.235 1.822 0.604 2.39 1.028zM16.084 4.843c0.235-0.117 0.442-0.325 0.604-0.559-0.343-0.234-0.794-0.451-1.371-0.622-0.045 0.063-0.090 0.117-0.135 0.162 0.406 0.325 0.694 0.685 0.902 1.019zM16.959 3.824c0.189-0.37 0.289-0.694 0.289-0.694v0c-0.009 0.036-0.054 0.361-0.225 0.74 0.325 0.216 0.577 0.451 0.758 0.667 0.28-0.28 0.758-0.848 0.785-1.533 0.027-0.92-0.685-0.983-0.685-0.983-0.054-0.009-0.099-0.063-0.090-0.117 0-0.063 0.054-0.099 0.117-0.099 0 0 0.902 0.090 0.866 1.209-0.027 0.767-0.559 1.398-0.857 1.687 0.081 0.108 0.144 0.198 0.198 0.289l1.209-0.884c0.685-0.983 0.64-2.002 0.64-2.011 0-0.054 0.045-0.108 0.099-0.108 0.063 0 0.108 0.045 0.108 0.099 0 0.009 0.045 0.812-0.415 1.705l3.923-2.859-5.267 4.726c0.135 0.379 0.144 0.713 0.108 1.037l0.072 0.027c1.263-0.83 2.697-1.398 2.706-1.398v0c-0.009 0-0.992 0.821-2.111 1.632 0.244 0.108 0.505 0.225 0.776 0.37 0.28-0.153 0.731-0.397 1.236-0.559 0.379-0.46 0.667-0.622 0.667-0.622 0.036-0.027 0.090-0.018 0.117 0.027 0.018 0.036 0.009 0.090-0.027 0.108 0 0.009-0.189 0.117-0.46 0.406 0.135-0.036 0.28-0.063 0.415-0.081 0.298-0.027 0.523 0.009 0.694 0.081 0.135-0.171 0.253-0.352 0.343-0.541 0.424-0.929-0.289-0.523-0.289-0.523-0.045 0.027-0.090 0.009-0.117-0.027-0.018-0.045-0.009-0.099 0.036-0.117 0 0 1.163-0.658 0.523 0.74-0.090 0.189-0.207 0.379-0.352 0.55 0.352 0.225 0.388 0.613 0.388 0.613 0.009 0.054-0.027 0.108-0.090 0.117-0.054 0.009-0.108-0.036-0.117-0.090 0-0.009-0.027-0.307-0.316-0.478-0.46 0.514-1.055 0.911-1.425 1.136 0.667 0.46 1.29 1.037 1.741 1.732 0.703-0.595 1.326-0.74 1.524 0.289v0 0l0.009 0.063c0.054-0.072 0.099-0.144 0.153-0.216 0.126-0.198 0.253-0.325 0.37-0.406 0.027-0.054 0.036-0.090 0.036-0.090 0.009-0.045 0.063-0.072 0.108-0.054 0.018 0.009 0.045 0.027 0.054 0.045 0.505-0.153 0.812 0.559 0.821 0.559 0.018 0.045 0 0.099-0.045 0.117s-0.090 0-0.117-0.045c0 0-0.271-0.64-0.722-0.397-0.090 0.235-0.271 0.676-0.577 1.163 0.045 0.604 0.036 1.488-0.262 2.309l0.045 0.027c-0.045 0.081-0.090 0.153-0.144 0.225-0.117 0.271-0.271 0.532-0.469 0.776-0.902 1.091-1.957 1.362-2.498 1.425 0.054 0.298 0.054 0.64-0.009 1.028 0.604-0.009 1.236-0.027 1.84-0.045 1.019-0.036 1.975-0.099 2.688-0.198 0.469-0.063 0.731-0.153 0.857-0.235-0.135 0.009-0.839-0.018-0.37-0.307 0.216-0.135 0.46-0.144 0.613-0.072 0.117 0.054 0.198 0.135 0.235 0.253 0.027 0.108 0 0.235-0.099 0.352-0.144 0.162-0.496 0.343-1.181 0.433-0.722 0.090-1.696 0.153-2.724 0.189-0.649 0.027-1.317 0.045-1.957 0.045-0.117 0.406-0.289 0.74-0.496 1.019 0.983 0.244 2.138 0.424 3.364 0.424 3.517 0 5.258-0.631 5.258-0.631s-2.101 1.064-4.708 1.172c-0.081 0.28-0.334 0.703-1.118 0.703-0.83 0-1.975-0.568-2.561-0.884 0.523 0.74 0.586 1.75 0.586 1.75 0 0.054-0.036 0.108-0.099 0.108-0.054 0.009-0.108-0.036-0.108-0.090 0-0.009-0.090-1.38-0.884-2.011l-0.171-0.036c-0.298 0.28-0.604 0.46-0.821 0.568l2.489 2.985-0.216 0.189-2.543-2.868c-0.045 0.054-0.108 0.108-0.171 0.162-0.171 0.343-0.46 0.812-0.92 1.326 0.343 0.081 0.893 0.28 1.353 0.848 0.776 0.947-0.207 1.777-0.207 1.786l-0.072-0.072c0-0.009 0.767-0.776 0.117-1.578-0.487-0.604-1.073-0.758-1.362-0.794-0.207 0.216-0.451 0.433-0.722 0.658 0.225 0.334 0.442 0.703 0.568 1.046 0.099 0.271 0.171 0.586 0.162 0.911-0.036 1.1-1.037 1.461-2.020 1.425-0.271 0-0.55-0.054-0.821-0.126 0.135 0.613 0.207 1.362 0.135 2.228-0.253 3.012-2.823 2.814-2.832 2.823v0c0.009 0 2.408-0.18 2.625-2.841 0.072-0.902-0.036-1.669-0.207-2.3-0.433-0.144-0.875-0.361-1.272-0.604-0.18 0.298-0.469 0.514-0.947 0.496-0.108 0-0.216-0.018-0.316-0.045-0.216 0.063-0.469 0.018-0.776-0.189-0.216-0.144-0.397-0.316-0.55-0.505-0.415 0.613-0.839 1.236-1.281 1.849-0.072 1.353-0.198 2.661-0.406 3.707-0.307 1.533-0.586 2.616-1.416 2.309v0c0.487 0.099 0.857-0.821 1.118-2.11 0.189-0.983 0.316-2.219 0.397-3.499-0.631 0.875-1.29 1.705-1.93 2.453-0.487 0.559-1.064 1.163-1.596 1.335v0c1.145-1.091 2.381-2.625 3.554-4.248 0.036-0.613 0.063-1.236 0.072-1.84-1.136 1.515-2.354 3.012-3.445 4.122-4.194 3.905-1.326-1.245-1.127-1.028v0c-0.009 0.009-1.804 3.436 0.884 0.704 1.163-1.172 2.48-2.76 3.707-4.347v-0.126c-0.28-0.054-0.568-0.135-0.857-0.225-0.126 0.135-0.235 0.271-0.352 0.388-0.289 1.416-1.191 2.444-1.2 2.453-0.036 0.045-0.099 0.045-0.144 0.009s-0.045-0.108-0.009-0.144c0-0.009 0.713-0.821 1.055-1.984-0.117 0.126-0.216 0.235-0.325 0.343-1.1 1.542-1.542 1.010-1.705 0.857-0.036-0.045-0.027-0.117 0.018-0.153s0.108-0.027 0.144 0.009c0 0.009 0.262 0.334 1.398-0.857 0.171-0.18 0.361-0.388 0.577-0.631 0.027-0.144 0.045-0.307 0.063-0.46l-0.108-0.045c-0.379 0.253-0.911 0.415-1.651 0.352-0.099 0-0.189-0.018-0.289-0.027-0.198 0.289-0.487 0.505-0.812 0.631-0.37 0.135-0.785 0.171-1.191 0.081-0.397-0.081-0.794-0.289-1.118-0.613-0.37-0.361-0.64-0.893-0.74-1.587v0c-0.189-1.416 0.523-2.201 1.182-2.616-0.126-0.298-0.189-0.514-0.207-0.586-0.117-0.090-0.235-0.189-0.352-0.289l-0.063 0.018c0 0-0.009-0.036-0.018-0.090-0.108-0.090-0.207-0.18-0.307-0.28v0l-0.018-0.009c-0.568-0.559-1.046-1.172-1.191-1.786-0.198-0.911 0.289-1.678 0.83-2.219l0.018-0.018c0.162-0.162 0.325-0.298 0.478-0.415 0.072-0.451 0.198-0.848 0.361-1.2-0.063-0.487-0.099-0.983-0.081-1.47 0.009-0.244 0.036-0.478 0.063-0.713-0.198 0.045-0.397 0.108-0.613 0.207-0.253 0.117-0.46 0.244-0.622 0.379-0.325 0.271-0.487 0.568-0.541 0.866-0.009 0.045-0.018 0.090-0.018 0.144 0.099 0.018 0.198 0.036 0.298 0.063 0.487 0.144 0.938 0.442 1.028 0.794 0.054 0.207 0.036 0.379-0.036 0.514-0.054 0.099-0.135 0.171-0.244 0.216-0.090 0.036-0.207 0.045-0.325 0.027v0c-0.198-0.036-0.415-0.153-0.613-0.37-0.289 0-1.181-0.045-1.145-0.776 0.009-0.189 0.108-0.316 0.262-0.406v0.009c0.117-0.072 0.271-0.099 0.442-0.099 0-0.063 0.009-0.126 0.018-0.18 0.072-0.37 0.271-0.74 0.658-1.055 0.189-0.162 0.415-0.307 0.704-0.433 0.28-0.126 0.55-0.207 0.812-0.262 0.162-0.839 0.505-1.642 1.1-2.336-0.406-0.388-1.019-0.884-1.894-1.407v0c1.127 0.117 1.867 0.559 2.327 0.965 0.406-0.361 0.839-0.586 1.281-0.722 0.144-0.090 0.289-0.171 0.433-0.234-0.343-0.496-1.109-1.344-2.778-2.219v0c2.092 0.487 3.003 1.407 3.373 1.984 0.009-0.009 0.027-0.018 0.054-0.045h0.009l0.018-0.009 0.027-0.027c0.099-0.108 0.207-0.234 0.334-0.37-0.379-0.541-1.1-1.362-2.444-2.291v0c1.569 0.433 2.444 1.218 2.913 1.84 1.524-1.362 3.454-2.074 5.43-2.047 0.947 0.009 1.732 0.135 2.381 0.325 0.505-0.676 1.209-1.768 0.92-2.363-0.171-0.361-0.505-0.568-0.893-0.559-0.352 0.018-0.758 0.126-1.145 0.316-0.361 0.171-0.713 0.406-1.001 0.685v0c-0.307 0.307-0.379 0.568-0.325 0.758 0.027 0.090 0.081 0.171 0.153 0.225 0.081 0.063 0.171 0.099 0.271 0.117 0.956 0.162 0.496-1.028 0.253-0.559-0.036 0.063-0.117 0.108-0.189 0.081-0.794-0.234 1.452-0.839 0.685 0.352-0.189 0.289-0.505 0.388-0.785 0.334-0.135-0.018-0.262-0.072-0.361-0.162-0.108-0.081-0.189-0.189-0.225-0.325-0.081-0.262 0.009-0.604 0.379-0.965v0c0.298-0.298 0.667-0.55 1.055-0.731 0.415-0.198 0.848-0.316 1.236-0.334 0.397-0.009 0.749 0.090 0.983 0.334v0c0.072 0.072 0.135 0.153 0.18 0.253 0.316 0.658-0.406 1.849-0.974 2.616 0.523 0.171 0.947 0.388 1.29 0.622zM16.77 4.338l-0.009 0.009c-0.171 0.253-0.352 0.505-0.586 0.649 0.045 0.072 0.081 0.144 0.117 0.216 0.225 0.099 0.469 0.225 0.685 0.361 0.099 0.063 0.198 0.126 0.289 0.189l0.433-0.406c-0.126-0.234-0.397-0.631-0.929-1.019zM14.65 5.060c-0.316-0.045-0.64-0.117-0.947-0.18 0.126 0.108 0.235 0.216 0.334 0.325 0.045 0.009 0.406-0.126 0.613-0.144zM15.859 21.24l0.036-0.018 0.027 0.018h-0.063zM16.129 21.231c0.045 0 0.081 0 0.126-0.009-0.036-0.045-0.063-0.099-0.099-0.153-0.036 0.018-0.072 0.045-0.108 0.063 0.027 0.036 0.054 0.072 0.081 0.099zM16.436 21.195c-0.045-0.072-0.090-0.144-0.144-0.225v0c0.045 0.045 0.108 0.126 0.18 0.216l-0.036 0.009zM16.652 21.15c0.207-0.063 0.406-0.153 0.586-0.28 0.117-0.081 0.216-0.162 0.307-0.244 0.108-0.135 0.207-0.271 0.298-0.415-0.081 0.036-0.171 0.063-0.262 0.090l-0.099 0.018-0.036 0.036c-0.271 0.253-0.631 0.424-1.001 0.523 0.054 0.072 0.126 0.153 0.207 0.271zM16.472 21.61l0.027 0.063-0.036 0.027-0.054-0.081 0.063-0.009zM16.22 21.637c-0.514 0.045-1.019-0.027-1.398-0.117-0.388 0.036-0.758 0-1.1-0.063-0.334 0.081-0.713 0.162-1.073 0.235 0.505 0.487 1.678 1.416 3.373 0.325 0.108-0.072 0.207-0.144 0.307-0.216-0.027-0.045-0.063-0.099-0.108-0.162zM2.655 17.2c0.009-0.036 0.018-0.072 0.036-0.099 0.054-0.135 0.117-0.235 0.198-0.298-0.117-0.37-0.225-0.758-0.307-1.172-0.072-0.343-0.117-0.667-0.144-0.965-0.126 0.622-0.207 1.524 0.099 2.273 0.036 0.090 0.072 0.18 0.117 0.262zM3.061 17.299c-0.045 0.135-0.045 0.289-0.036 0.442 0.117 0.135 0.253 0.262 0.379 0.379-0.063-0.135-0.117-0.271-0.18-0.406l-0.036 0.009c0 0-0.018-0.072-0.027-0.18-0.036-0.081-0.072-0.162-0.099-0.244zM8.364 7.387c0.027 0.036 0.072 0.063 0.126 0.081 0.244 0.072 0.46-0.072 0.46-0.072s0 0.298-0.253 0.334c-0.108 0.018-0.225 0-0.334-0.027 0.009 0.090 0.027 0.162 0.045 0.234 0.216-0.018 0.415-0.027 0.586-0.027 0.027-0.216 0.063-0.442 0.090-0.676-0.189-0.099-0.388-0.189-0.604-0.271-0.063 0.144-0.099 0.289-0.117 0.424zM6.921 7.766c0 0-0.108-0.415-0.126-1.181h-0.018c-0.55 0.658-0.604 1.488-0.577 1.984 0.045-0.027 0.099-0.054 0.153-0.081 0.298-0.153 0.604-0.271 0.911-0.352-0.153-0.325-0.253-0.794-0.126-1.452-0.045 0.072-0.099 0.162-0.135 0.253-0.144 0.325-0.081 0.83-0.081 0.83zM8.463 6.178c0.117-0.144 0.271-0.316 0.442-0.487-0.451-0.009-0.694 0.090-1.064 0.216 0.072 0.027 0.144 0.054 0.225 0.081 0.135 0.054 0.262 0.117 0.397 0.189zM9.203 5.989c-0.144 0.135-0.271 0.28-0.37 0.406 0.108 0.072 0.216 0.153 0.325 0.234 0.027-0.207 0.036-0.406 0.045-0.577v-0.063zM15.724 5.484c-0.135-0.018-0.28-0.027-0.424-0.036 0.18 0.063 0.343 0.126 0.496 0.198-0.018-0.054-0.045-0.108-0.072-0.162zM15.534 7.125c0.036-0.225 0.036-0.505 0.027-0.749-0.235-0.036-0.514-0.054-0.848-0.063 0.153 0.388 0.235 0.767 0.28 1.064 0.162-0.063 0.352-0.153 0.541-0.253zM17.031 20.41c-0.036 0-0.081 0.009-0.126 0.009-0.036 0.045-0.081 0.081-0.117 0.117 0.081-0.036 0.171-0.081 0.244-0.126zM18.114 19.157c0.162-0.108 0.28-0.216 0.361-0.289 0.072-0.271 0.117-0.487 0.126-0.649l-0.063-0.018c-0.081 0.162-0.207 0.397-0.379 0.676-0.009 0.090-0.027 0.18-0.045 0.28zM13.135 23.188c-0.036 0.144-0.081 0.334-0.153 0.532 0.099 0.072 0.207 0.144 0.307 0.207 0.090-0.262 0.108-0.55 0.108-0.74-0.081 0-0.171 0-0.262 0zM12.883 23.982c-0.081 0.198-0.198 0.397-0.334 0.55 0.298-0.009 0.496-0.162 0.622-0.361-0.090-0.063-0.189-0.126-0.289-0.189zM10.682 23.874c-0.072-0.117-0.144-0.225-0.198-0.343-0.189-0.018-0.424-0.045-0.685-0.090l-0.162 0.225c-0.009 0.586-0.027 1.2-0.054 1.795 0.379-0.523 0.749-1.055 1.1-1.587zM10.312 23.179c-0.027-0.063-0.045-0.126-0.063-0.18-0.054 0.009-0.099 0.018-0.144 0.027l-0.081 0.108c0.108 0.018 0.198 0.027 0.289 0.045zM8.147 22.259c-0.108 0.099-0.207 0.18-0.289 0.244l0.027 0.018c0.099-0.081 0.189-0.171 0.262-0.262zM7.128 22.016c0.171-0.036 0.352-0.108 0.505-0.28 0.072-0.090 0.135-0.171 0.189-0.253-0.406-0.189-0.776-0.415-1.091-0.649-0.144 0.162-0.289 0.334-0.433 0.505 0.298 0.262 0.586 0.487 0.83 0.676zM5.757 21.998l-0.072 0.099c-0.18 0.216-0.343 0.406-0.505 0.559 0.325 0.144 0.694 0.244 1.127 0.28 0.541 0.045 0.947-0.045 1.263-0.207-0.036-0.018-0.072-0.036-0.108-0.054v0.009c-0.749-0.189-1.064-0.307-1.705-0.685zM1.924 16.009c-0.036-0.622 0.054-1.227 0.153-1.651-0.18 0.361-0.234 0.884-0.18 1.434 0 0.072 0.009 0.144 0.027 0.216zM11.863 4.753c-0.74-0.063-1.371 0.271-1.768 0.559 0.054 0.027 0.108 0.054 0.171 0.081 0.307 0.144 0.559 0.316 0.776 0.505 0.487-0.298 1.037-0.532 1.65-0.631-0.235-0.189-0.514-0.37-0.83-0.514zM9.798 5.006c0.271-0.198 0.649-0.424 1.091-0.559-0.352-0.072-0.749-0.108-1.181-0.108 0.027 0.18 0.063 0.415 0.090 0.667zM22.145 9.777c-0.135 0-0.316 0.027-0.514 0.162 0.153 0.262 0.271 0.532 0.352 0.83 0.162-0.18 0.325-0.37 0.487-0.532-0.099-0.162-0.207-0.316-0.325-0.46zM21.198 10.462c-0.253 0.478-0.37 1.163-0.424 1.551 0 0.072 0 0.144 0 0.225 0 0.054-0.009 0.108-0.009 0.162 0.18-0.28 0.424-0.622 0.694-0.974-0.027-0.352-0.117-0.676-0.262-0.965zM20.594 10.877c0.090-0.298 0.207-0.586 0.361-0.821-0.568-0.812-1.515-1.362-2.363-1.714 0.036 0.090 0.072 0.18 0.108 0.28 0.649 0.406 1.515 1.136 1.894 2.255zM21.397 9.596c0.144-0.099 0.289-0.162 0.424-0.198-1.037-1.064-2.498-1.732-3.409-2.074-0.018 0.081-0.036 0.171-0.054 0.253 0.983 0.361 2.255 0.992 3.039 2.020zM23.029 13.79c0.352-0.090 0.749-0.307 1.010-0.794l0.018 0.018c0.225-0.64 0.271-1.308 0.253-1.84-0.171 0.235-0.361 0.469-0.586 0.694l-0.081 0.162c0.018 0.767-0.216 1.335-0.613 1.759zM23.579 13.926c-0.379 0.216-0.776 0.262-1.037 0.271-0.442 0.28-0.992 0.469-1.578 0.577l-0.009 0.036c0.018 0.036 0.036 0.072 0.054 0.108 0.397 0.090 1.091 0.144 1.759-0.216 0.253-0.18 0.514-0.406 0.749-0.704 0.027-0.027 0.045-0.045 0.063-0.072zM19.782 16.135c0.271-0.099 0.559-0.325 0.722-0.794-0.045-0.144-0.108-0.262-0.18-0.37-0.036 0.027-0.072 0.045-0.108 0.072-0.063 0.406-0.235 0.776-0.433 1.091zM20.585 13.908c-0.027-0.135-0.063-0.262-0.099-0.379-0.063 0.162-0.135 0.316-0.207 0.46 0.036 0.036 0.072 0.063 0.117 0.108 0.063-0.063 0.126-0.126 0.189-0.189zM20.693 13.132c0.054 0.135 0.108 0.289 0.153 0.46 0.117-0.153 0.225-0.325 0.316-0.505-0.162 0.018-0.316 0.036-0.469 0.045zM20.612 15.883c-0.289 0.442-0.704 0.595-1.028 0.649 0.009 0.027 0.009 0.054 0.009 0.081 0.307 0.009 0.631 0.009 0.965 0l0.009-0.009c0.054-0.271 0.063-0.514 0.045-0.722zM22.001 15.125c-0.352 0.045-0.667 0.018-0.911-0.018 0.027 0.072 0.054 0.153 0.072 0.235 0.207-0.027 0.496-0.081 0.839-0.216zM16.707 22.061c0.045 0.063 0.054 0.108 0.045 0.144 0.027 0.081-0.009 0.090-0.099 0.018-0.027-0.009-0.054-0.036-0.090-0.072-0.099 0.072-0.207 0.144-0.316 0.216-0.731 0.46-1.425 0.676-2.038 0.74 0.171 0.271 0.487 0.812 0.704 1.623 0.289 0.081 0.586 0.135 0.875 0.144 0.902 0.018 1.84-0.063 1.867-1.163 0.009-0.289-0.054-0.595-0.144-0.848-0.126-0.316-0.334-0.676-0.541-1.001-0.090 0.063-0.171 0.135-0.262 0.198zM13.866 23.152c-0.045 0-0.108 0.009-0.171 0.018 0 0.225-0.027 0.595-0.153 0.92 0.343 0.207 0.704 0.397 1.073 0.532-0.244-0.74-0.577-1.245-0.749-1.47zM9.708 23.044l-0.027 0.036-0.036-0.009v-0.117l0.063 0.090zM10.754 22.133c0.225 0.135 0.46 0.244 0.64 0.225 0.189-0.027 0.343-0.135 0.451-0.253l0.18-0.289c-0.379 0.081-0.704 0.135-0.893 0.162-0.099 0.009-0.198 0.018-0.298 0.027l-0.081 0.126zM7.435 20.050c0.144 0.153 0.361 0.361 0.604 0.532 0.198-0.171 0.406-0.424 0.55-0.812l-0.415-0.505c-0.225 0.235-0.469 0.487-0.74 0.785zM8.68 20.879c0.244 0.045 0.487 0.009 0.713-0.171 0-0.361-0.009-0.694-0.009-0.983l-0.135 0.081c-0.135 0.487-0.343 0.83-0.568 1.073zM9.636 20.492c0.171-0.162 0.289-0.307 0.37-0.442l-0.361-0.478-0.018 0.009 0.009 0.911zM10.114 21.204c0.153 0.027 0.505 0.099 0.857 0.153 0.162-0.216 0.325-0.433 0.469-0.64-0.207-0.090-0.442-0.207-0.676-0.361-0.126 0.171-0.253 0.334-0.379 0.505-0.090 0.117-0.18 0.225-0.271 0.343zM11.268 21.393c0.162 0.018 0.316 0.027 0.433 0.018 0.045 0 0.090 0 0.135-0.009 0.108-0.036 0.216-0.063 0.316-0.099 0.117-0.054 0.216-0.108 0.307-0.171l0.045-0.063c-0.117-0.045-0.198-0.090-0.225-0.099-0.072-0.018-0.298-0.063-0.595-0.162-0.135 0.189-0.271 0.388-0.415 0.586zM7.814 9.191c-0.117 0.054-0.225 0.126-0.343 0.198-0.262 0.18-0.478 0.397-0.64 0.613 0.153 0.027 0.316 0.072 0.496 0.117 0.153 0.036 0.298 0.081 0.424 0.117l0.18-0.162-0.117-0.884zM11.926 7.251c0.334-0.036 0.884-0.090 1.497-0.117 0.235-0.018 0.415-0.018 0.577-0.009-0.090-0.244-0.207-0.514-0.37-0.785-0.83 0.054-1.443 0.244-1.894 0.46 0.072 0.153 0.135 0.307 0.189 0.451zM14.055 7.287c-0.162 0-0.361 0-0.622 0.009-0.343 0.018-0.676 0.045-0.956 0.072 0.667 0.036 1.218 0.153 1.65 0.18-0.018-0.081-0.045-0.171-0.072-0.262zM2.889 14.259c0.054 0.135 0.009 0.298-0.108 0.388 0.018 0.289 0.054 0.595 0.126 0.911 0.081 0.379 0.171 0.731 0.28 1.064 0.072-0.37 0.235-0.776 0.577-1.118-0.162-0.361-0.334-0.794-0.487-1.272-0.433-0.063-0.388 0.027-0.388 0.027zM2.799 13.682c0.090-0.018 0.198-0.027 0.316-0.027-0.018-0.063-0.036-0.126-0.045-0.189-0.081 0.054-0.171 0.108-0.271 0.18v0.036zM3.881 13.718c0.198 0.027 0.415 0.072 0.667 0.135-0.108-0.55-0.108-1.019-0.018-1.416 0.108-0.532 0.379-0.938 0.74-1.218-0.027-0.081-0.054-0.18-0.081-0.289-0.595 0.487-1.29 1.371-1.308 2.787zM5 13.971c0.090 0.027 0.171 0.054 0.253 0.081-0.027-0.406 0.036-0.92 0.334-1.497 0.081-0.135 0.162-0.262 0.253-0.379-0.009-0.144-0.027-0.451 0.027-0.83-0.045 0.018-0.081 0.045-0.126 0.063-0.397 0.235-0.685 0.595-0.803 1.118-0.081 0.388-0.063 0.866 0.063 1.443zM5.324 14.737l-0.117-0.036 0.018 0.054 0.099-0.018zM4.72 14.548c-0.063-0.018-0.135-0.036-0.198-0.054-0.234-0.054-0.433-0.108-0.613-0.144 0.018 0.090 0.027 0.189 0.045 0.289 0.072 0.198 0.144 0.37 0.216 0.532 0.18-0.117 0.397-0.216 0.649-0.307-0.036-0.108-0.072-0.207-0.099-0.316zM8.238 23.035l0.063 0.027-0.072 0.072 0.009-0.099zM24.842 9.903c-0.036 0.036-0.063 0.081-0.090 0.117-0.081 0.126-0.171 0.253-0.253 0.379 0.009 0.045 0.018 0.090 0.018 0.135 0.135-0.235 0.244-0.451 0.325-0.631zM24.292 10.76c-0.108 0.189-0.207 0.379-0.307 0.559 0.117-0.144 0.216-0.28 0.316-0.424l-0.009-0.135zM23.615 11.689c0.18-0.37 0.406-0.803 0.64-1.209-0.018-0.198-0.045-0.325-0.054-0.352v0 0 0c-0.135-0.713-0.595-0.595-1.145-0.135 0.289 0.505 0.496 1.064 0.559 1.696zM4.783 18.832c0.18-0.28 0.469-0.604 0.902-0.875-0.361-0.289-0.785-0.685-1.173-1.181-0.379 0.433-0.469 0.929-0.451 1.344 0.117 0.153 0.379 0.469 0.722 0.712zM5.802 18.129c-0.406 0.253-0.676 0.559-0.848 0.812 0.316 0.189 0.487 0.28 0.577 0.316l0.090-0.063c0.018-0.072 0.027-0.189 0.054-0.388 0.027-0.235 0.081-0.487 0.126-0.676zM9.843 5.889c-0.009 0.063-0.009 0.126-0.009 0.189-0.009 0.262-0.036 0.577-0.081 0.902 0.235-0.244 0.487-0.487 0.758-0.704-0.153-0.117-0.316-0.225-0.514-0.316-0.054-0.027-0.108-0.045-0.153-0.072zM9.654 7.766c-0.036 0.225-0.063 0.442-0.099 0.64 0.108-0.135 0.235-0.262 0.361-0.379l-0.262-0.262zM9.176 5.078c-0.027-0.244-0.063-0.46-0.090-0.631-0.352 0.225-0.667 0.46-0.929 0.685 0.307-0.063 0.649-0.090 1.019-0.054zM21.036 7.955c0.343-0.198 0.956-0.595 1.416-1.1-0.126-0.045-0.298-0.063-0.514-0.036-0.235 0.018-0.469 0.081-0.685 0.153-0.162 0.207-0.343 0.46-0.523 0.785 0.099 0.063 0.207 0.126 0.307 0.198zM20.585 7.666c0.126-0.225 0.253-0.424 0.379-0.595-0.307 0.117-0.577 0.262-0.776 0.37 0.135 0.072 0.262 0.144 0.397 0.225zM22.984 12.464c-0.316 0.198-0.676 0.37-1.082 0.478-0.144 0.433-0.37 0.803-0.622 1.127 0.884-0.253 1.569-0.731 1.705-1.605zM19.963 13.15c-0.126 0-0.253-0.009-0.361-0.027 0.090 0.099 0.171 0.198 0.244 0.307 0.045-0.090 0.081-0.18 0.117-0.28zM19.394 12.933c0.189 0.027 0.388 0.045 0.613 0.054 0.072-0.244 0.126-0.505 0.135-0.776 0.054-1.218-0.55-2.065-1.181-2.616 0.090 0.397 0.117 0.749 0.108 1.055 0.054 0.379 0.081 0.785 0.072 1.2-0.009 0.307-0.018 0.595-0.036 0.866 0.099 0.063 0.198 0.135 0.289 0.216zM20.684 12.97c0.171-0.018 0.361-0.036 0.559-0.063 0.126-0.325 0.216-0.676 0.225-1.082-0.352 0.487-0.64 0.92-0.785 1.145zM21.965 12.753c0.388-0.117 0.74-0.298 1.046-0.505 0-0.063 0-0.135 0-0.198-0.018-0.595-0.171-1.127-0.424-1.605-0.18 0.198-0.361 0.406-0.532 0.622 0.018 0.108 0.027 0.225 0.036 0.343 0.036 0.496-0.009 0.938-0.126 1.344zM18.934 11.563c-0.126 0.388-0.307 0.658-0.469 0.839 0.126 0.045 0.28 0.108 0.433 0.198 0.018-0.235 0.027-0.487 0.036-0.758 0-0.090 0-0.189 0-0.28zM18.023 11.545c0.027 0.045 0.045 0.090 0.072 0.135 0.018 0.027 0.036 0.063 0.045 0.099 0.081-0.171 0.207-0.559 0.063-1.209-0.189-0.902-0.649-0.171-0.649-0.171 0.244 0.271 0.388 0.794 0.469 1.145zM18.447 12.843c0.081 0.586 0.027 1.1-0.036 1.434 0.108 0.009 0.225 0.009 0.334 0.018 0.045-0.307 0.090-0.722 0.126-1.227-0.144-0.099-0.289-0.171-0.424-0.225zM6.668 9.542c0.153-0.18 0.343-0.352 0.568-0.505 0.307-0.198 0.604-0.343 0.893-0.442-0.126 0.018-0.253 0.045-0.388 0.072l-0.018 0.027c0 0-0.018-0.009-0.036-0.018-0.343 0.072-0.704 0.189-1.037 0.37-0.126 0.063-0.244 0.135-0.352 0.198 0.126 0.090 0.262 0.207 0.37 0.298zM5.965 12.753c-0.262 0.496-0.316 0.938-0.298 1.272 0.099-0.334 0.253-0.74 0.487-1.191 0.207-0.397 0.487-0.694 0.767-0.92-0.361 0.144-0.722 0.397-0.956 0.839zM3.972 15.928c-0.604 0.74-0.379 1.696-0.379 1.696l-0.036 0.009c0.054 0.126 0.108 0.253 0.162 0.37 0-0.478 0.135-1.028 0.595-1.506-0.126-0.18-0.244-0.37-0.343-0.568zM4.657 8.135c-0.063-0.081-0.162-0.216-0.316-0.388-0.469 0.568-0.767 1.227-0.92 1.912 0.631-0.036 1.154 0.108 1.47 0.225 0.027-0.081 0.072-0.171 0.135-0.28-0.135-0.289-0.361-0.848-0.37-1.47zM15.002 3.689l0.081-0.090c-0.108-0.027-0.216-0.054-0.325-0.081 0.081 0.054 0.162 0.108 0.244 0.171zM19.070 13.213c-0.027 0.442-0.072 0.803-0.108 1.082 0.117 0.009 0.244 0.009 0.37 0.009 0.099-0.135 0.198-0.28 0.289-0.433-0.144-0.28-0.343-0.496-0.55-0.658zM18.889 16.613l0.063-0.072c-0.036-0.289-0.108-0.541-0.189-0.749l-0.036 0.018c-0.108 0.090-0.216 0.171-0.325 0.244 0 0.099 0 0.216 0.018 0.352 0.009 0.063 0.018 0.126 0.027 0.198 0.144 0 0.289 0.009 0.442 0.009zM20.441 17.037c-0.289 0-0.577 0-0.848 0-0.018 0.262-0.072 0.487-0.144 0.685 0.162 0.054 0.325 0.099 0.505 0.153 0.189-0.225 0.361-0.496 0.487-0.839zM19.457 15.874c0.090-0.153 0.18-0.325 0.244-0.505-0.126 0.072-0.244 0.126-0.361 0.18 0.045 0.099 0.081 0.207 0.117 0.325zM19.151 18.336c-0.054 0.081-0.090 0.126-0.090 0.126l-0.244-0.198-0.090-0.018 0.207 0.379c0.090-0.045 0.253-0.117 0.433-0.235l-0.216-0.054zM6.082 19.716l0.036 0.036c0.234 0.189 0.595 0.126 0.595 0.126s-0.18-0.171-0.316-0.316c-0.135-0.153-0.325-0.532-0.325-0.532s-0.162 0.469 0.009 0.685zM9.266 21.917c-0.162-0.027-0.325-0.063-0.496-0.108-0.090 0.253-0.253 0.586-0.541 0.866 0.099 0.045 0.198 0.081 0.307 0.117 0.235-0.271 0.478-0.568 0.731-0.875zM2.799 21.195c0-0.054 0.036-0.108 0.099-0.108 0.054-0.009 0.108 0.036 0.108 0.090 0 0.009 0.235 2.607 1.687 1.605-1.1-0.649-1.551-1.687-1.551-1.687-0.045-0.090 0-0.189 0.081-0.225 0.090-0.036 0.189 0 0.225 0.090 0 0 0.433 1.010 1.524 1.596 0.171-0.153 0.352-0.352 0.541-0.595l0.063-0.072c-0.28-0.171-0.559-0.379-0.83-0.631-0.658-0.595-1.082-1.326-1.335-1.885-0.586 0.388-1.2 1.091-1.028 2.345v0c0.090 0.64 0.334 1.118 0.667 1.452 0.289 0.28 0.64 0.46 0.992 0.541 0.361 0.072 0.722 0.045 1.046-0.072 0.244-0.099 0.46-0.253 0.631-0.451-0.298-0.072-0.568-0.171-0.812-0.289-1.822 1.497-2.111-1.696-2.111-1.705zM5.811 21.592l0.108-0.135c-0.631-0.559-1.317-1.281-1.921-2.255l-0.117-0.072c-0.045 0.018-0.090 0.036-0.135 0.063 0.235 0.523 0.631 1.218 1.254 1.795 0.262 0.235 0.541 0.442 0.812 0.604zM6.127 21.195l0.343-0.442-0.577 0.225c0.072 0.072 0.153 0.144 0.234 0.216zM7.209 19.788c0.234-0.307 0.442-0.586 0.631-0.839-0.225-0.135-0.622-0.307-0.92-0.027-0.325 0.316 0.072 0.694 0.289 0.866zM6.082 21.601l-0.090 0.099c0.189 0.108 0.361 0.198 0.532 0.271-0.144-0.117-0.289-0.235-0.442-0.37zM9.392 22.097c-0.216 0.271-0.433 0.523-0.64 0.758 0.207 0.072 0.424 0.117 0.631 0.162 0-0.316 0.009-0.622 0.009-0.92zM5.324 9.236c0.081-0.081 0.171-0.171 0.28-0.262-0.054-0.379-0.135-1.38 0.352-2.291-0.099 0.027-0.189 0.054-0.28 0.090-0.884 0.767-0.595 1.885-0.352 2.462zM7.588 8.054c0.135-0.027 0.271-0.054 0.397-0.072-0.072-0.289-0.099-0.694 0.099-1.163-0.198-0.063-0.397-0.117-0.595-0.153-0.162 0.676-0.045 1.118 0.099 1.389zM4.738 10.183c-0.298-0.108-0.794-0.225-1.389-0.18-0.045 0.262-0.072 0.532-0.081 0.803-0.009 0.235 0 0.469 0.009 0.704 0.496-0.694 1.1-1.118 1.461-1.326zM1.049 12.023c0.027 0.117 0.063 0.225 0.108 0.316 0.045 0.117 0.108 0.225 0.18 0.307 0.162 0.189 0.334 0.298 0.478 0.316v0c0.054 0.009 0.099 0.009 0.135-0.009 0.036-0.009 0.063-0.027 0.072-0.063 0.036-0.054 0.036-0.144 0.009-0.271-0.054-0.225-0.415-0.433-0.794-0.55-0.063-0.018-0.126-0.027-0.189-0.045zM0.842 12.483c-0.063-0.153-0.117-0.316-0.135-0.496-0.117 0-0.225 0.018-0.298 0.054v0c-0.045 0.027-0.072 0.072-0.081 0.126-0.009 0.289 0.307 0.388 0.568 0.415-0.018-0.036-0.036-0.063-0.054-0.099zM11.34 6.205c0.063 0.081 0.126 0.162 0.18 0.244 0.46-0.234 1.055-0.433 1.831-0.505-0.072-0.108-0.162-0.207-0.253-0.307-0.054 0.009-0.108 0.018-0.171 0.018-0.586 0.072-1.109 0.28-1.587 0.55zM11.313 7.405c-0.036-0.090-0.072-0.18-0.117-0.271-0.18 0.126-0.307 0.253-0.388 0.343 0.135-0.018 0.307-0.054 0.505-0.072zM14.506 5.871c0.244-0.009 0.478-0.009 0.694-0.009-0.253-0.081-0.523-0.153-0.821-0.198 0.045 0.072 0.081 0.144 0.126 0.207zM23.94 19.021c-0.262-0.009-0.532-0.018-0.812-0.045 0.099 0.171 0.253 0.343 0.433 0.343s0.307-0.153 0.379-0.298zM2.952 12.943c-0.027 0.072-0.045 0.153-0.063 0.244l0.099-0.063c-0.009-0.063-0.027-0.126-0.036-0.18zM1.69 16.559c-0.063-0.235-0.108-0.487-0.126-0.731-0.027-0.244-0.027-0.478-0.009-0.704-0.108 0.289-0.135 0.595-0.063 0.92 0.036 0.171 0.108 0.343 0.198 0.514zM17.798 15.711c0.099-0.054 0.189-0.126 0.289-0.198 0.018-0.036 0.036-0.072 0.036-0.117 0.045-0.316-0.271-0.424-0.271-0.424s0.027 0.451-0.081 0.64c-0.036 0.072-0.018 0.099 0.027 0.099zM7.444 17.245c0 0 0.225 0.207 0.424 0.189 0.189-0.018 0.271-0.262 0.271-0.262s-0.343 0.090-0.694 0.072zM15.579 19.166c0.036 0.009 0.469 0.18 0.875-0.253 0.406-0.442 0.244-1.001 0.244-1.001s-0.126 0.451-0.523 0.794c-0.397 0.352-0.595 0.46-0.595 0.46zM15.471 18.39c0 0 0.253 0.090 0.514-0.108 0.271-0.207 0.117-0.541 0.117-0.541l-0.631 0.649zM16.725 19.4c0 0 0.541-0.027 0.749-0.334s-0.126-0.812-0.126-0.812c0 0 0.018 0.216-0.108 0.622-0.135 0.406-0.514 0.523-0.514 0.523zM17.085 12.149c0 0 0.018 0.532 0.298 0.604 0.28 0.081 0.207-0.289 0.207-0.289s-0.099 0.036-0.262-0.009c-0.153-0.036-0.244-0.307-0.244-0.307zM16.905 11.229c0 0-0.108 0.406 0.063 0.586 0.171 0.171 0.523 0.244 0.523 0.244s-0.28-0.55-0.586-0.83zM17.158 10.056c0 0 0.162-0.55-0.054-0.794-0.207-0.253-0.731-0.162-0.731-0.162l0.785 0.956zM15.823 9.948c0 0 0.063-0.487-0.415-0.992-0.478-0.496-0.929-0.027-0.929-0.027s0.631 0.225 0.848 0.433c0.216 0.207 0.496 0.586 0.496 0.586zM6.948 13.754c0.036-0.144 0.271-0.388 0.271-0.388s-0.271-0.036-0.316 0.099c-0.045 0.126 0.045 0.289 0.045 0.289zM5.974 16.532c0 0-0.108 0.171 0.117 0.343 0.234 0.18 0.794-0.144 0.794-0.144s-0.18 0.018-0.424-0.018c-0.244-0.045-0.487-0.18-0.487-0.18zM7.3 15.982c0 0-0.108 0.271-0.099 0.622 0.009 0.343 0.271 0.469 0.271 0.469s-0.171-0.424-0.171-1.091zM10.114 18.877c0 0 0.081 0.559 0.613 0.712 0.108 0.027 0.207 0.045 0.298 0.045h0.045l0.009-0.009h0.099l0.009-0.009h0.054v-0.009h0.036l0.009-0.009h0.018c0.253-0.054 0.415-0.171 0.415-0.171s-0.099 0-0.28-0.027h-0.045v-0.009h-0.054v-0.009h-0.045l-0.009-0.009h-0.036l-0.009-0.009h-0.027c-0.072-0.018-0.153-0.036-0.235-0.054-0.451-0.126-0.866-0.433-0.866-0.433zM13.442 20.519c0 0-0.144 0.198 0.054 0.316s0.424 0.054 0.253-0.027c-0.171-0.081-0.307-0.289-0.307-0.289zM13.757 20.095c0 0 0.496 0.649 0.983 0.667 0.478 0.018 0.902-1.181 0.902-1.181s-0.189 0.235-0.676 0.469c-0.496 0.235-1.209 0.045-1.209 0.045z"></path>
</svg>
