<!-- Generated by IcoMoon.io -->
<svg version="1.1" xmlns="http://www.w3.org/2000/svg" width="32" height="32" viewBox="0 0 32 32">
<title>htmlacademy</title>
<path fill="#93ca44" d="M16.107 2.667h-0.107l-10.507 1.12v19.307l10.507 6.24 10.507-6.24v-19.307l-10.4-1.12zM25.173 22.293l-9.173 5.44-9.173-5.44v-7.893l9.12 5.44v0.96l-6.24-3.733v0.96l6.293 3.787v1.013l-6.293-3.733v0.96l6.293 3.733 6.347-3.787v-4.053l2.827-1.707v8.053zM25.12 13.227l-2.507 1.493-1.173 0.693-5.493-3.253v0.96l4.693 2.827h-0.053l-0.107 0.053-0.693 0.373-3.893-2.293v0.96l3.093 1.813-0.747 0.48-2.293-1.387v0.96l1.547 0.907-1.547 0.907-9.067-5.387 9.067-5.44 9.173 5.333zM25.173 12.267l-9.227-5.44-9.12 5.44v-7.253l9.173-0.96 9.173 0.96v7.253z"></path>
</svg>
