<!-- Generated by IcoMoon.io -->
<svg version="1.1" xmlns="http://www.w3.org/2000/svg" width="29" height="32" viewBox="0 0 29 32">
<title>js</title>
<path fill="#93ca44" d="M13.22 0.406c0.79-0.452 1.819-0.454 2.608 0 3.971 2.244 7.943 4.484 11.914 6.729 0.747 0.421 1.246 1.252 1.239 2.112v13.5c0.005 0.896-0.543 1.747-1.331 2.158-3.958 2.231-7.914 4.466-11.871 6.697-0.806 0.461-1.856 0.425-2.637-0.073-1.187-0.688-2.375-1.372-3.562-2.059-0.243-0.145-0.516-0.26-0.687-0.495 0.151-0.204 0.422-0.23 0.642-0.319 0.495-0.158 0.95-0.41 1.405-0.656 0.115-0.079 0.256-0.049 0.366 0.022 1.015 0.582 2.020 1.18 3.039 1.757 0.217 0.125 0.437-0.041 0.623-0.145 3.884-2.195 7.773-4.382 11.656-6.578 0.144-0.069 0.223-0.222 0.212-0.38 0.003-4.453 0.001-8.907 0.001-13.361 0.016-0.179-0.087-0.343-0.249-0.417-3.944-2.221-7.887-4.446-11.83-6.668-0.141-0.096-0.323-0.097-0.465-0.001-3.944 2.223-7.885 4.449-11.829 6.67-0.161 0.073-0.269 0.235-0.25 0.415 0.001 4.453 0 8.907 0 13.361-0.014 0.158 0.071 0.307 0.214 0.375 1.052 0.597 2.106 1.189 3.159 1.784 0.593 0.319 1.322 0.509 1.975 0.264 0.577-0.207 0.981-0.795 0.97-1.408 0.005-4.427-0.003-8.855 0.004-13.282-0.014-0.197 0.172-0.359 0.363-0.341 0.506-0.003 1.012-0.007 1.518 0.001 0.211-0.005 0.356 0.207 0.33 0.405-0.002 4.455 0.005 8.911-0.003 13.366 0.001 1.187-0.486 2.48-1.585 3.061-1.353 0.701-3.026 0.552-4.362-0.12-1.157-0.578-2.262-1.259-3.398-1.878-0.79-0.409-1.336-1.263-1.331-2.159v-13.5c-0.008-0.878 0.511-1.724 1.281-2.139 3.957-2.234 7.914-4.468 11.871-6.703v0z"></path>
<path fill="#93ca44" d="M16.673 9.758c1.726-0.111 3.574-0.066 5.127 0.784 1.202 0.652 1.869 2.019 1.89 3.355-0.034 0.18-0.222 0.28-0.394 0.267-0.501-0.001-1.002 0.007-1.503-0.003-0.212 0.008-0.336-0.188-0.362-0.375-0.144-0.639-0.493-1.272-1.094-1.581-0.924-0.462-1.994-0.439-3.002-0.43-0.735 0.039-1.526 0.103-2.149 0.535-0.478 0.328-0.623 0.989-0.453 1.521 0.161 0.382 0.602 0.506 0.963 0.619 2.080 0.544 4.284 0.49 6.324 1.206 0.845 0.292 1.671 0.859 1.96 1.744 0.378 1.185 0.212 2.602-0.631 3.554-0.684 0.783-1.68 1.209-2.673 1.441-1.322 0.295-2.693 0.302-4.035 0.171-1.262-0.144-2.575-0.475-3.55-1.335-0.833-0.724-1.24-1.851-1.2-2.939 0.010-0.184 0.193-0.312 0.369-0.297 0.504-0.004 1.009-0.005 1.513 0.001 0.201-0.014 0.351 0.16 0.361 0.349 0.093 0.609 0.322 1.248 0.853 1.609 1.025 0.661 2.311 0.616 3.485 0.634 0.972-0.043 2.064-0.056 2.857-0.699 0.419-0.367 0.543-0.98 0.43-1.507-0.123-0.445-0.589-0.653-0.989-0.789-2.053-0.649-4.282-0.414-6.316-1.148-0.826-0.292-1.624-0.843-1.941-1.692-0.443-1.2-0.24-2.685 0.692-3.604 0.909-0.915 2.22-1.267 3.467-1.393v0z"></path>
</svg>
